<svg width="318" height="286" viewBox="0 0 318 286" fill="none" xmlns="http://www.w3.org/2000/svg">
<path d="M116.855 26.6699C143.506 14.0531 174.412 14.0531 201.063 26.6699L261.953 55.4961C268.733 58.7062 273.07 65.5216 273.107 73.0234L273.479 148.816C273.632 180.108 258.182 209.419 232.28 226.976L211.66 240.812C195.619 251.574 177.114 256.928 158.623 256.883C177.102 256.921 195.592 251.566 211.623 240.811L231.01 227.802C230.126 208.59 219.987 191.993 205.283 183.048H190.834C210.875 174.759 225.196 153.586 225.482 128.687L225.485 127.926V126.95C225.485 103.445 201.566 84.3898 172.059 84.3896H146.127C116.621 84.3897 92.7008 103.445 92.7007 126.95V127.926L92.7046 128.687C92.991 153.586 107.311 174.759 127.351 183.048H112.561C97.8608 191.991 87.723 208.58 86.8335 227.785L85.6382 226.976C59.7356 209.419 44.2846 180.108 44.438 148.816L44.8101 73.0234C44.847 65.5216 49.1847 58.7061 55.9653 55.4961L116.855 26.6699Z" fill="url(#paint0_radial_38_26350)"/>
<g filter="url(#filter0_dii_38_26350)">
<path d="M113.326 19.3164C142.188 5.6531 175.656 5.65317 204.518 19.3164L265.407 48.1416L265.855 48.3584C275.217 52.9973 281.181 62.5304 281.232 73.0068L281.415 110.35L303.407 97.8252L299.555 130.6L281.565 140.845L281.604 148.799C281.771 182.812 264.977 214.671 236.822 233.755L236.807 233.766L216.171 247.611C181.333 270.986 135.794 270.879 101.066 247.341L81.0215 233.755C52.8665 214.671 36.0725 182.812 36.2393 148.799L36.2783 140.803L18.3633 130.6L14.5107 97.8252L36.4277 110.308L36.6113 73.0068C36.6636 62.3642 42.8173 52.6953 52.4365 48.1416L113.326 19.3164ZM201.025 26.6934C174.374 14.0766 143.469 14.0766 116.818 26.6934L55.9287 55.5195C49.1481 58.7296 44.8103 65.545 44.7734 73.0469L44.4375 141.478V145.45L44.418 145.438L44.4014 148.839C44.2667 176.298 56.1481 202.231 76.5635 220.035C79.8206 202.219 91.1938 187.236 106.711 179.062C108.582 180.502 110.535 181.84 112.561 183.07C97.854 192.017 87.715 208.617 86.833 227.833L105.646 240.585C137.62 262.257 179.548 262.355 211.623 240.834L231.01 227.824C230.125 208.612 219.987 192.016 205.282 183.07C207.308 181.84 209.262 180.502 211.133 179.062C226.65 187.236 238.021 202.218 241.278 220.034C261.694 202.23 273.577 176.298 273.442 148.839L273.07 73.0469C273.033 65.545 268.696 58.7296 261.915 55.5195L201.025 26.6934Z" fill="url(#paint1_linear_38_26350)"/>
</g>
<g filter="url(#filter1_dii_38_26350)">
<path d="M172.292 62.6298C207.554 62.8401 236.087 91.3741 236.297 126.636C236.298 126.828 236.298 127.054 236.298 127.508C236.298 127.961 236.298 128.188 236.297 128.38C236.087 163.642 207.554 192.175 172.292 192.385C172.1 192.387 171.873 192.387 171.42 192.387H146.425C145.971 192.387 145.745 192.387 145.553 192.385C110.291 192.175 81.7569 163.642 81.5468 128.38C81.5457 128.188 81.5459 127.961 81.5459 127.508C81.5459 127.054 81.5457 126.828 81.5468 126.636C81.7569 91.374 110.291 62.8399 145.553 62.6298C145.745 62.6287 145.971 62.6289 146.425 62.6289H171.42C171.873 62.6289 172.1 62.6287 172.292 62.6298ZM145.937 84.3948C116.385 84.3948 92.4289 103.479 92.4289 127.02V127.996L92.4333 128.758C92.8035 160.964 116.616 186.946 145.937 186.946H171.908C201.228 186.946 225.042 160.964 225.412 128.758L225.415 127.996V127.02C225.415 103.479 201.459 84.3948 171.908 84.3948H145.937Z" fill="url(#paint2_linear_38_26350)"/>
<path d="M172.292 62.6298C207.554 62.8401 236.087 91.3741 236.297 126.636C236.298 126.828 236.298 127.054 236.298 127.508C236.298 127.961 236.298 128.188 236.297 128.38C236.087 163.642 207.554 192.175 172.292 192.385C172.1 192.387 171.873 192.387 171.42 192.387H146.425C145.971 192.387 145.745 192.387 145.553 192.385C110.291 192.175 81.7569 163.642 81.5468 128.38C81.5457 128.188 81.5459 127.961 81.5459 127.508C81.5459 127.054 81.5457 126.828 81.5468 126.636C81.7569 91.374 110.291 62.8399 145.553 62.6298C145.745 62.6287 145.971 62.6289 146.425 62.6289H171.42C171.873 62.6289 172.1 62.6287 172.292 62.6298ZM145.937 84.3948C116.385 84.3948 92.4289 103.479 92.4289 127.02V127.996L92.4333 128.758C92.8035 160.964 116.616 186.946 145.937 186.946H171.908C201.228 186.946 225.042 160.964 225.412 128.758L225.415 127.996V127.02C225.415 103.479 201.459 84.3948 171.908 84.3948H145.937Z" stroke="url(#paint3_linear_38_26350)" stroke-width="0.362764"/>
</g>
<rect x="172.935" y="113.068" width="18.2066" height="28.8792" rx="9.1033" fill="white"/>
<rect x="126.703" y="113.068" width="18.2066" height="28.8792" rx="9.1033" fill="white"/>
<defs>
<filter id="filter0_dii_38_26350" x="0.000166893" y="0.000226498" width="317.918" height="285.02" filterUnits="userSpaceOnUse" color-interpolation-filters="sRGB">
<feFlood flood-opacity="0" result="BackgroundImageFix"/>
<feColorMatrix in="SourceAlpha" type="matrix" values="0 0 0 0 0 0 0 0 0 0 0 0 0 0 0 0 0 0 127 0" result="hardAlpha"/>
<feOffset dy="5.44147"/>
<feGaussianBlur stdDeviation="7.25529"/>
<feComposite in2="hardAlpha" operator="out"/>
<feColorMatrix type="matrix" values="0 0 0 0 0 0 0 0 0 0 0 0 0 0 0 0 0 0 0.25 0"/>
<feBlend mode="normal" in2="BackgroundImageFix" result="effect1_dropShadow_38_26350"/>
<feBlend mode="normal" in="SourceGraphic" in2="effect1_dropShadow_38_26350" result="shape"/>
<feColorMatrix in="SourceAlpha" type="matrix" values="0 0 0 0 0 0 0 0 0 0 0 0 0 0 0 0 0 0 127 0" result="hardAlpha"/>
<feOffset dy="3.62764"/>
<feGaussianBlur stdDeviation="1.81382"/>
<feComposite in2="hardAlpha" operator="arithmetic" k2="-1" k3="1"/>
<feColorMatrix type="matrix" values="0 0 0 0 1 0 0 0 0 1 0 0 0 0 1 0 0 0 0.6 0"/>
<feBlend mode="normal" in2="shape" result="effect2_innerShadow_38_26350"/>
<feColorMatrix in="SourceAlpha" type="matrix" values="0 0 0 0 0 0 0 0 0 0 0 0 0 0 0 0 0 0 127 0" result="hardAlpha"/>
<feOffset dy="-1.81382"/>
<feGaussianBlur stdDeviation="1.81382"/>
<feComposite in2="hardAlpha" operator="arithmetic" k2="-1" k3="1"/>
<feColorMatrix type="matrix" values="0 0 0 0 0 0 0 0 0 0 0 0 0 0 0 0 0 0 0.25 0"/>
<feBlend mode="normal" in2="effect2_innerShadow_38_26350" result="effect3_innerShadow_38_26350"/>
</filter>
<filter id="filter1_dii_38_26350" x="66.8542" y="53.3782" width="184.136" height="159.142" filterUnits="userSpaceOnUse" color-interpolation-filters="sRGB">
<feFlood flood-opacity="0" result="BackgroundImageFix"/>
<feColorMatrix in="SourceAlpha" type="matrix" values="0 0 0 0 0 0 0 0 0 0 0 0 0 0 0 0 0 0 127 0" result="hardAlpha"/>
<feOffset dy="5.44147"/>
<feGaussianBlur stdDeviation="7.25529"/>
<feComposite in2="hardAlpha" operator="out"/>
<feColorMatrix type="matrix" values="0 0 0 0 0 0 0 0 0 0 0 0 0 0 0 0 0 0 0.25 0"/>
<feBlend mode="normal" in2="BackgroundImageFix" result="effect1_dropShadow_38_26350"/>
<feBlend mode="normal" in="SourceGraphic" in2="effect1_dropShadow_38_26350" result="shape"/>
<feColorMatrix in="SourceAlpha" type="matrix" values="0 0 0 0 0 0 0 0 0 0 0 0 0 0 0 0 0 0 127 0" result="hardAlpha"/>
<feOffset dy="3.62764"/>
<feGaussianBlur stdDeviation="1.81382"/>
<feComposite in2="hardAlpha" operator="arithmetic" k2="-1" k3="1"/>
<feColorMatrix type="matrix" values="0 0 0 0 1 0 0 0 0 1 0 0 0 0 1 0 0 0 0.6 0"/>
<feBlend mode="normal" in2="shape" result="effect2_innerShadow_38_26350"/>
<feColorMatrix in="SourceAlpha" type="matrix" values="0 0 0 0 0 0 0 0 0 0 0 0 0 0 0 0 0 0 127 0" result="hardAlpha"/>
<feOffset dy="-1.81382"/>
<feGaussianBlur stdDeviation="1.81382"/>
<feComposite in2="hardAlpha" operator="arithmetic" k2="-1" k3="1"/>
<feColorMatrix type="matrix" values="0 0 0 0 0 0 0 0 0 0 0 0 0 0 0 0 0 0 0.25 0"/>
<feBlend mode="normal" in2="effect2_innerShadow_38_26350" result="effect3_innerShadow_38_26350"/>
</filter>
<radialGradient id="paint0_radial_38_26350" cx="0" cy="0" r="1" gradientUnits="userSpaceOnUse" gradientTransform="translate(158.958 153.558) rotate(90) scale(136.349 114.522)">
<stop stop-color="#090503"/>
<stop offset="1" stop-color="#432417"/>
</radialGradient>
<linearGradient id="paint1_linear_38_26350" x1="133.059" y1="9.09081" x2="126.197" y2="289.67" gradientUnits="userSpaceOnUse">
<stop stop-color="white"/>
<stop offset="0.124996" stop-color="#FDC3AF"/>
<stop offset="0.264421" stop-color="#FCBEA9"/>
<stop offset="0.437499" stop-color="white"/>
<stop offset="0.591347" stop-color="#FCB299"/>
<stop offset="0.86058" stop-color="#F96B3B"/>
<stop offset="1" stop-color="#FBA386"/>
</linearGradient>
<linearGradient id="paint2_linear_38_26350" x1="142.763" y1="62.6289" x2="153.237" y2="192.844" gradientUnits="userSpaceOnUse">
<stop stop-color="white"/>
<stop offset="0.124996" stop-color="#FDC3AF"/>
<stop offset="0.264421" stop-color="#FCBEA9"/>
<stop offset="0.437499" stop-color="white"/>
<stop offset="0.591347" stop-color="#FCB299"/>
<stop offset="0.86058" stop-color="#F96B3B"/>
<stop offset="1" stop-color="#FBA386"/>
</linearGradient>
<linearGradient id="paint3_linear_38_26350" x1="142.763" y1="62.6289" x2="153.237" y2="192.844" gradientUnits="userSpaceOnUse">
<stop stop-color="white"/>
<stop offset="0.124996" stop-color="#FDC3AF"/>
<stop offset="0.264421" stop-color="#FCBEA9"/>
<stop offset="0.437499" stop-color="white"/>
<stop offset="0.591347" stop-color="#FCB299"/>
<stop offset="0.86058" stop-color="#F96B3B"/>
<stop offset="1" stop-color="#FBA386"/>
</linearGradient>
</defs>
</svg>
