<svg width="21" height="20" viewBox="0 0 21 20" fill="none" xmlns="http://www.w3.org/2000/svg">
<path d="M10.3738 3.022e-07C15.9041 0.00134859 20.3702 4.47975 20.3671 10.0209C20.3641 15.5353 15.8795 20.0032 10.3509 19.9998C4.81908 19.9964 0.361706 15.5092 0.367193 9.94931C0.372604 4.46532 4.86498 -0.00134143 10.3738 3.022e-07ZM3.88171 9.29033C3.86804 9.9302 4.04557 10.2756 4.3456 10.5744C5.54014 11.7643 6.72949 12.9594 7.92342 14.1499C8.61566 14.8402 9.51071 14.8312 10.1984 14.1293C11.105 13.2041 12.0072 12.2745 12.9147 11.3502C14.0823 10.1611 15.2549 8.977 16.4222 7.78762C17.0649 7.13276 16.9906 6.12535 16.2681 5.60679C15.676 5.18189 14.9221 5.27324 14.3626 5.84068C12.7902 7.43514 11.2191 9.03075 9.64682 10.6253C9.20449 11.0739 8.85057 11.0758 8.40948 10.6353C7.69086 9.91779 6.98121 9.19092 6.25023 8.48618C5.81633 8.06785 5.28529 7.97876 4.73327 8.21579C4.18212 8.45245 3.89987 8.89652 3.88171 9.29033Z" fill="#00FF80"/>
</svg>
