<svg width="43" height="44" viewBox="0 0 43 44" fill="none" xmlns="http://www.w3.org/2000/svg">
<g clip-path="url(#clip0_3_158922)">
<path d="M21.4998 0.643555C28.903 0.643555 35.8532 2.58572 41.8674 5.98989C42.0667 6.10169 42.1914 6.31095 42.1971 6.53885C42.2057 6.88572 42.21 7.23259 42.21 7.58232C42.21 8.32909 42.1899 9.07155 42.1512 9.80972C42.0509 11.6903 41.4561 13.5192 40.3567 15.0471C35.2684 22.1178 26.968 26.7231 17.5911 26.7231C13.0532 26.7231 8.76748 25.6438 4.97632 23.7303C9.79518 26.8822 15.5543 28.7154 21.7406 28.7154C27.3936 28.7154 32.6884 27.186 37.2364 24.5172C37.804 24.1846 38.4948 24.7623 38.2124 25.3571C34.6549 32.8348 28.9216 39.0784 21.8309 43.268C21.6274 43.3884 21.3737 43.3884 21.1701 43.268C14.078 39.077 8.34322 32.8319 4.78568 25.3514C4.03605 23.7747 4.10772 21.9243 5.04082 20.4494C10.0073 12.5976 18.7664 7.38309 28.7453 7.38309C33.2832 7.38309 37.5689 8.46239 41.36 10.3759C36.5412 7.22399 30.7821 5.39075 24.5944 5.39075C15.917 5.39075 8.08092 8.99559 2.50238 14.7891C2.12255 15.1833 1.44888 14.997 1.35858 14.458C0.984484 12.222 0.789551 9.92439 0.789551 7.58232C0.789551 7.23402 0.793851 6.88572 0.802451 6.53885C0.808184 6.31095 0.932884 6.10169 1.13212 5.98989C7.14638 2.58572 14.0966 0.643555 21.4998 0.643555Z" fill="white"/>
</g>
<defs>
<clipPath id="clip0_3_158922">
<rect width="43" height="43" fill="white" transform="translate(0 0.5)"/>
</clipPath>
</defs>
</svg>
