<svg width="670" height="33" viewBox="0 0 670 33" fill="none" xmlns="http://www.w3.org/2000/svg">
<path opacity="0.35" d="M29.4014 3.08789L3.52832 32.6514L0 29.5635L25.874 0L29.4014 3.08789ZM40.2578 3.08789L14.3838 32.6514L10.8555 29.5635L36.7295 0L40.2578 3.08789ZM51.1133 3.08789L25.2393 32.6514L21.7109 29.5635L47.585 0L51.1133 3.08789ZM61.9688 3.08789L36.0947 32.6514L32.5664 29.5635L58.4404 0L61.9688 3.08789ZM72.8242 3.08789L46.9502 32.6514L43.4219 29.5635L69.2959 0L72.8242 3.08789ZM83.6797 3.08789L57.8057 32.6514L54.2773 29.5635L80.1514 0L83.6797 3.08789ZM94.5352 3.08789L68.6611 32.6514L65.1328 29.5635L91.0068 0L94.5352 3.08789ZM105.391 3.08789L79.5166 32.6514L75.9883 29.5635L101.862 0L105.391 3.08789ZM116.246 3.08789L90.3721 32.6514L86.8438 29.5635L112.718 0L116.246 3.08789ZM127.102 3.08789L101.228 32.6514L97.6992 29.5635L123.573 0L127.102 3.08789ZM137.957 3.08789L112.083 32.6514L108.556 29.5635L134.429 0L137.957 3.08789ZM148.812 3.08789L122.938 32.6514L119.411 29.5635L145.284 0L148.812 3.08789ZM159.668 3.08789L133.794 32.6514L130.267 29.5635L156.14 0L159.668 3.08789ZM170.523 3.08789L144.649 32.6514L141.122 29.5635L166.995 0L170.523 3.08789ZM181.379 3.08789L155.506 32.6514L151.978 29.5635L177.852 0L181.379 3.08789ZM192.234 3.08789L166.361 32.6514L162.833 29.5635L188.707 0L192.234 3.08789ZM203.09 3.08789L177.217 32.6514L173.688 29.5635L199.562 0L203.09 3.08789ZM213.945 3.08789L188.072 32.6514L184.544 29.5635L210.418 0L213.945 3.08789ZM224.802 3.08789L198.928 32.6514L195.399 29.5635L221.273 0L224.802 3.08789ZM235.657 3.08789L209.783 32.6514L206.255 29.5635L232.129 0L235.657 3.08789ZM246.513 3.08789L220.639 32.6514L217.11 29.5635L242.984 0L246.513 3.08789ZM257.368 3.08789L231.494 32.6514L227.966 29.5635L253.84 0L257.368 3.08789ZM268.224 3.08789L242.35 32.6514L238.821 29.5635L264.695 0L268.224 3.08789ZM279.079 3.08789L253.205 32.6514L249.677 29.5635L275.551 0L279.079 3.08789ZM289.935 3.08789L264.061 32.6514L260.532 29.5635L286.406 0L289.935 3.08789ZM300.79 3.08789L274.916 32.6514L271.388 29.5635L297.262 0L300.79 3.08789ZM311.646 3.08789L285.771 32.6514L282.243 29.5635L308.117 0L311.646 3.08789ZM322.501 3.08789L296.627 32.6514L293.1 29.5635L318.973 0L322.501 3.08789ZM333.356 3.08789L307.482 32.6514L303.955 29.5635L329.828 0L333.356 3.08789ZM344.212 3.08789L318.338 32.6514L314.811 29.5635L340.684 0L344.212 3.08789ZM355.067 3.08789L329.193 32.6514L325.666 29.5635L351.539 0L355.067 3.08789ZM365.923 3.08789L340.049 32.6514L336.521 29.5635L362.396 0L365.923 3.08789ZM376.778 3.08789L350.905 32.6514L347.377 29.5635L373.251 0L376.778 3.08789ZM387.634 3.08789L361.761 32.6514L358.232 29.5635L384.106 0L387.634 3.08789ZM398.489 3.08789L372.616 32.6514L369.088 29.5635L394.962 0L398.489 3.08789ZM409.346 3.08789L383.472 32.6514L379.943 29.5635L405.817 0L409.346 3.08789ZM420.201 3.08789L394.327 32.6514L390.799 29.5635L416.673 0L420.201 3.08789ZM431.057 3.08789L405.183 32.6514L401.654 29.5635L427.528 0L431.057 3.08789ZM441.912 3.08789L416.038 32.6514L412.51 29.5635L438.384 0L441.912 3.08789ZM452.768 3.08789L426.894 32.6514L423.365 29.5635L449.239 0L452.768 3.08789ZM463.623 3.08789L437.749 32.6514L434.221 29.5635L460.095 0L463.623 3.08789ZM474.479 3.08789L448.604 32.6514L445.076 29.5635L470.95 0L474.479 3.08789ZM485.334 3.08789L459.46 32.6514L455.932 29.5635L481.806 0L485.334 3.08789ZM496.189 3.08789L470.315 32.6514L466.787 29.5635L492.661 0L496.189 3.08789ZM507.045 3.08789L481.171 32.6514L477.644 29.5635L503.517 0L507.045 3.08789ZM517.9 3.08789L492.026 32.6514L488.499 29.5635L514.372 0L517.9 3.08789ZM528.756 3.08789L502.882 32.6514L499.354 29.5635L525.228 0L528.756 3.08789ZM539.611 3.08789L513.737 32.6514L510.21 29.5635L536.084 0L539.611 3.08789ZM550.467 3.08789L524.594 32.6514L521.065 29.5635L546.939 0L550.467 3.08789ZM561.322 3.08789L535.449 32.6514L531.921 29.5635L557.795 0L561.322 3.08789ZM572.178 3.08789L546.305 32.6514L542.776 29.5635L568.65 0L572.178 3.08789ZM583.033 3.08789L557.16 32.6514L553.632 29.5635L579.506 0L583.033 3.08789ZM593.889 3.08789L568.016 32.6514L564.487 29.5635L590.361 0L593.889 3.08789ZM604.745 3.08789L578.871 32.6514L575.343 29.5635L601.217 0L604.745 3.08789ZM615.601 3.08789L589.727 32.6514L586.198 29.5635L612.072 0L615.601 3.08789ZM626.456 3.08789L600.582 32.6514L597.054 29.5635L622.928 0L626.456 3.08789ZM637.312 3.08789L611.438 32.6514L607.909 29.5635L633.783 0L637.312 3.08789ZM648.167 3.08789L622.293 32.6514L618.765 29.5635L644.639 0L648.167 3.08789ZM659.022 3.08789L633.148 32.6514L629.62 29.5635L655.494 0L659.022 3.08789ZM669.878 3.08789L644.004 32.6514L640.476 29.5635L666.35 0L669.878 3.08789Z" fill="black"/>
</svg>
