<svg width="25" height="25" viewBox="0 0 25 25" fill="none" xmlns="http://www.w3.org/2000/svg">
<path d="M12.9648 24.2012C19.5923 24.2012 24.9648 18.8286 24.9648 12.2012C24.9648 5.57375 19.5923 0.201172 12.9648 0.201172C6.33742 0.201172 0.964844 5.57375 0.964844 12.2012C0.964844 18.8286 6.33742 24.2012 12.9648 24.2012Z" fill="url(#paint0_linear_4790_188320)"/>
<path d="M7.28257 15.6743C7.38416 15.5727 7.52387 15.5134 7.67206 15.5134H21.1092C21.3547 15.5134 21.4775 15.8098 21.3039 15.9833L18.6495 18.6378C18.5479 18.7394 18.4082 18.7986 18.26 18.7986H4.82289C4.57736 18.7986 4.45459 18.5023 4.62817 18.3287L7.28257 15.6743Z" fill="white"/>
<path d="M7.28257 5.76365C7.38839 5.66206 7.52811 5.60278 7.67206 5.60278H21.1092C21.3547 5.60278 21.4775 5.89913 21.3039 6.0727L18.6495 8.7271C18.5479 8.82872 18.4082 8.888 18.26 8.888H4.82289C4.57736 8.888 4.45459 8.59163 4.62817 8.41805L7.28257 5.76365Z" fill="white"/>
<path d="M18.6495 10.6878C18.5479 10.5861 18.4082 10.5269 18.26 10.5269H4.82289C4.57736 10.5269 4.45459 10.8232 4.62817 10.9968L7.28257 13.6512C7.38416 13.7528 7.52387 13.8121 7.67206 13.8121H21.1092C21.3547 13.8121 21.4775 13.5157 21.3039 13.3422L18.6495 10.6878Z" fill="white"/>
<defs>
<linearGradient id="paint0_linear_4790_188320" x1="23.483" y1="1.47537" x2="3.97503" y2="21.3684" gradientUnits="userSpaceOnUse">
<stop stop-color="#00FFA3"/>
<stop offset="1" stop-color="#DC1FFF"/>
</linearGradient>
</defs>
</svg>
