<svg width="278" height="289" viewBox="0 0 278 289" fill="none" xmlns="http://www.w3.org/2000/svg">
<path fill-rule="evenodd" clip-rule="evenodd" d="M96.7808 27.8249C123.432 15.2082 154.337 15.2081 180.988 27.8249L241.878 56.6512C248.658 59.8613 252.996 66.6765 253.032 74.1783L253.404 149.971C253.558 181.262 238.107 210.573 212.205 228.13L191.585 241.966C159.509 263.487 117.581 263.388 85.6073 241.717L65.5632 228.13C39.6607 210.573 24.2101 181.262 24.3634 149.971L24.7354 74.1783C24.7723 66.6762 29.1104 59.8612 35.8911 56.6512L96.7808 27.8249ZM124.101 88.5409C90.4565 88.5409 63.1826 110.267 63.1826 137.069V138.181L63.187 139.048C63.6086 175.714 90.7194 205.293 124.101 205.293H153.668C187.049 205.293 214.16 175.714 214.582 139.048L214.586 138.181V137.069C214.586 110.268 187.312 88.541 153.668 88.5409H124.101Z" fill="url(#paint0_radial_39_26650)"/>
<g filter="url(#filter0_dii_39_26650)">
<path d="M93.2888 20.4477C122.151 6.78437 155.618 6.78434 184.48 20.4477L245.37 49.2731L245.818 49.4901C255.18 54.129 261.143 63.6614 261.195 74.1379L261.567 149.93C261.734 183.943 244.94 215.802 216.784 234.886L216.769 234.897L196.133 248.743C161.295 272.118 115.757 272.01 81.0287 248.472L60.9837 234.886C32.8286 215.802 16.0346 183.943 16.2014 149.93L16.5734 74.1379C16.6256 63.4952 22.7799 53.8269 32.3992 49.2731L93.2888 20.4477ZM180.988 27.8243C154.337 15.2075 123.432 15.2075 96.7809 27.8243L35.8913 56.6506C29.1106 59.8607 24.7725 66.6757 24.7356 74.1777L24.3636 149.97C24.2102 181.262 39.6608 210.572 65.5634 228.129L85.6075 241.716C117.582 263.388 159.509 263.486 191.585 241.965L212.205 228.129C238.108 210.572 253.558 181.262 253.405 149.97L253.033 74.1777C252.996 66.6758 248.658 59.8607 241.878 56.6506L180.988 27.8243Z" fill="url(#paint1_linear_39_26650)"/>
<path d="M93.2888 20.4477C122.151 6.78437 155.618 6.78434 184.48 20.4477L245.37 49.2731L245.818 49.4901C255.18 54.129 261.143 63.6614 261.195 74.1379L261.567 149.93C261.734 183.943 244.94 215.802 216.784 234.886L216.769 234.897L196.133 248.743C161.295 272.118 115.757 272.01 81.0287 248.472L60.9837 234.886C32.8286 215.802 16.0346 183.943 16.2014 149.93L16.5734 74.1379C16.6256 63.4952 22.7799 53.8269 32.3992 49.2731L93.2888 20.4477ZM180.988 27.8243C154.337 15.2075 123.432 15.2075 96.7809 27.8243L35.8913 56.6506C29.1106 59.8607 24.7725 66.6757 24.7356 74.1777L24.3636 149.97C24.2102 181.262 39.6608 210.572 65.5634 228.129L85.6075 241.716C117.582 263.388 159.509 263.486 191.585 241.965L212.205 228.129C238.108 210.572 253.558 181.262 253.405 149.97L253.033 74.1777C252.996 66.6758 248.658 59.8607 241.878 56.6506L180.988 27.8243Z" stroke="url(#paint2_linear_39_26650)" stroke-width="0.4"/>
</g>
<g filter="url(#filter1_dii_39_26650)">
<path d="M154.106 63.7598C194.251 63.9992 226.736 96.4848 226.975 136.63C226.977 136.848 226.976 137.106 226.976 137.622C226.976 138.139 226.977 138.397 226.975 138.616C226.736 178.761 194.251 211.245 154.106 211.485C153.888 211.486 153.629 211.487 153.113 211.487H124.657C124.141 211.487 123.883 211.486 123.664 211.485C83.5189 211.246 51.0332 178.761 50.794 138.616C50.7927 138.397 50.793 138.139 50.793 137.622C50.793 137.106 50.7927 136.848 50.794 136.63C51.0331 96.4847 83.5188 63.999 123.664 63.7598C123.883 63.7585 124.141 63.7588 124.657 63.7588H153.113C153.629 63.7588 153.888 63.7585 154.106 63.7598ZM124.101 88.539C90.4569 88.539 63.1831 110.266 63.1831 137.067V138.179L63.1881 139.046C63.6096 175.712 90.7198 205.292 124.101 205.292H153.669C187.05 205.292 214.161 175.712 214.582 139.046L214.586 138.179V137.067C214.586 110.266 187.313 88.539 153.669 88.539H124.101Z" fill="url(#paint3_linear_39_26650)"/>
<path d="M154.106 63.7598C194.251 63.9992 226.736 96.4848 226.975 136.63C226.977 136.848 226.976 137.106 226.976 137.622C226.976 138.139 226.977 138.397 226.975 138.616C226.736 178.761 194.251 211.245 154.106 211.485C153.888 211.486 153.629 211.487 153.113 211.487H124.657C124.141 211.487 123.883 211.486 123.664 211.485C83.5189 211.246 51.0332 178.761 50.794 138.616C50.7927 138.397 50.793 138.139 50.793 137.622C50.793 137.106 50.7927 136.848 50.794 136.63C51.0331 96.4847 83.5188 63.999 123.664 63.7598C123.883 63.7585 124.141 63.7588 124.657 63.7588H153.113C153.629 63.7588 153.888 63.7585 154.106 63.7598ZM124.101 88.539C90.4569 88.539 63.1831 110.266 63.1831 137.067V138.179L63.1881 139.046C63.6096 175.712 90.7198 205.292 124.101 205.292H153.669C187.05 205.292 214.161 175.712 214.582 139.046L214.586 138.179V137.067C214.586 110.266 187.313 88.539 153.669 88.539H124.101Z" stroke="url(#paint4_linear_39_26650)" stroke-width="0.4"/>
</g>
<rect x="154.838" y="121.186" width="20.728" height="32.8786" rx="10.364" fill="white"/>
<rect x="102.204" y="121.186" width="20.728" height="32.8786" rx="10.364" fill="white"/>
<defs>
<filter id="filter0_dii_39_26650" x="0" y="0" width="277.768" height="288.4" filterUnits="userSpaceOnUse" color-interpolation-filters="sRGB">
<feFlood flood-opacity="0" result="BackgroundImageFix"/>
<feColorMatrix in="SourceAlpha" type="matrix" values="0 0 0 0 0 0 0 0 0 0 0 0 0 0 0 0 0 0 127 0" result="hardAlpha"/>
<feOffset dy="6"/>
<feGaussianBlur stdDeviation="8"/>
<feComposite in2="hardAlpha" operator="out"/>
<feColorMatrix type="matrix" values="0 0 0 0 0 0 0 0 0 0 0 0 0 0 0 0 0 0 0.25 0"/>
<feBlend mode="normal" in2="BackgroundImageFix" result="effect1_dropShadow_39_26650"/>
<feBlend mode="normal" in="SourceGraphic" in2="effect1_dropShadow_39_26650" result="shape"/>
<feColorMatrix in="SourceAlpha" type="matrix" values="0 0 0 0 0 0 0 0 0 0 0 0 0 0 0 0 0 0 127 0" result="hardAlpha"/>
<feOffset dy="4"/>
<feGaussianBlur stdDeviation="2"/>
<feComposite in2="hardAlpha" operator="arithmetic" k2="-1" k3="1"/>
<feColorMatrix type="matrix" values="0 0 0 0 0.58 0 0 0 0 0.58 0 0 0 0 0.58 0 0 0 0.6 0"/>
<feBlend mode="normal" in2="shape" result="effect2_innerShadow_39_26650"/>
<feColorMatrix in="SourceAlpha" type="matrix" values="0 0 0 0 0 0 0 0 0 0 0 0 0 0 0 0 0 0 127 0" result="hardAlpha"/>
<feOffset dy="-2"/>
<feGaussianBlur stdDeviation="2"/>
<feComposite in2="hardAlpha" operator="arithmetic" k2="-1" k3="1"/>
<feColorMatrix type="matrix" values="0 0 0 0 0 0 0 0 0 0 0 0 0 0 0 0 0 0 0.25 0"/>
<feBlend mode="normal" in2="effect2_innerShadow_39_26650" result="effect3_innerShadow_39_26650"/>
</filter>
<filter id="filter1_dii_39_26650" x="34.5928" y="53.5586" width="208.584" height="180.128" filterUnits="userSpaceOnUse" color-interpolation-filters="sRGB">
<feFlood flood-opacity="0" result="BackgroundImageFix"/>
<feColorMatrix in="SourceAlpha" type="matrix" values="0 0 0 0 0 0 0 0 0 0 0 0 0 0 0 0 0 0 127 0" result="hardAlpha"/>
<feOffset dy="6"/>
<feGaussianBlur stdDeviation="8"/>
<feComposite in2="hardAlpha" operator="out"/>
<feColorMatrix type="matrix" values="0 0 0 0 0 0 0 0 0 0 0 0 0 0 0 0 0 0 0.25 0"/>
<feBlend mode="normal" in2="BackgroundImageFix" result="effect1_dropShadow_39_26650"/>
<feBlend mode="normal" in="SourceGraphic" in2="effect1_dropShadow_39_26650" result="shape"/>
<feColorMatrix in="SourceAlpha" type="matrix" values="0 0 0 0 0 0 0 0 0 0 0 0 0 0 0 0 0 0 127 0" result="hardAlpha"/>
<feOffset dy="4"/>
<feGaussianBlur stdDeviation="2"/>
<feComposite in2="hardAlpha" operator="arithmetic" k2="-1" k3="1"/>
<feColorMatrix type="matrix" values="0 0 0 0 0.58 0 0 0 0 0.58 0 0 0 0 0.58 0 0 0 0.6 0"/>
<feBlend mode="normal" in2="shape" result="effect2_innerShadow_39_26650"/>
<feColorMatrix in="SourceAlpha" type="matrix" values="0 0 0 0 0 0 0 0 0 0 0 0 0 0 0 0 0 0 127 0" result="hardAlpha"/>
<feOffset dy="-2"/>
<feGaussianBlur stdDeviation="2"/>
<feComposite in2="hardAlpha" operator="arithmetic" k2="-1" k3="1"/>
<feColorMatrix type="matrix" values="0 0 0 0 0 0 0 0 0 0 0 0 0 0 0 0 0 0 0.25 0"/>
<feBlend mode="normal" in2="effect2_innerShadow_39_26650" result="effect3_innerShadow_39_26650"/>
</filter>
<radialGradient id="paint0_radial_39_26650" cx="0" cy="0" r="1" gradientUnits="userSpaceOnUse" gradientTransform="translate(138.883 138.2) rotate(90) scale(119.838 114.522)">
<stop stop-color="#060606"/>
<stop offset="1" stop-color="#2D2D2D"/>
</radialGradient>
<linearGradient id="paint1_linear_39_26650" x1="113.263" y1="10.2002" x2="138.884" y2="266.2" gradientUnits="userSpaceOnUse">
<stop stop-color="#949494"/>
<stop offset="0.124996" stop-color="#6B6B6B"/>
<stop offset="0.264421" stop-color="#676767"/>
<stop offset="0.437499" stop-color="#949494"/>
<stop offset="0.591347" stop-color="#5F5F5F"/>
<stop offset="0.86058" stop-color="#2F2F2F"/>
<stop offset="1" stop-color="#565656"/>
</linearGradient>
<linearGradient id="paint2_linear_39_26650" x1="113.263" y1="10.2002" x2="138.884" y2="266.2" gradientUnits="userSpaceOnUse">
<stop stop-color="#949494"/>
<stop offset="0.124996" stop-color="#6B6B6B"/>
<stop offset="0.264421" stop-color="#676767"/>
<stop offset="0.437499" stop-color="#949494"/>
<stop offset="0.591347" stop-color="#5F5F5F"/>
<stop offset="0.86058" stop-color="#2F2F2F"/>
<stop offset="1" stop-color="#565656"/>
</linearGradient>
<linearGradient id="paint3_linear_39_26650" x1="120.488" y1="63.7588" x2="132.412" y2="212.007" gradientUnits="userSpaceOnUse">
<stop stop-color="#949494"/>
<stop offset="0.124996" stop-color="#6B6B6B"/>
<stop offset="0.264421" stop-color="#676767"/>
<stop offset="0.437499" stop-color="#949494"/>
<stop offset="0.591347" stop-color="#5F5F5F"/>
<stop offset="0.86058" stop-color="#2F2F2F"/>
<stop offset="1" stop-color="#565656"/>
</linearGradient>
<linearGradient id="paint4_linear_39_26650" x1="120.488" y1="63.7588" x2="132.412" y2="212.007" gradientUnits="userSpaceOnUse">
<stop stop-color="#949494"/>
<stop offset="0.124996" stop-color="#6B6B6B"/>
<stop offset="0.264421" stop-color="#676767"/>
<stop offset="0.437499" stop-color="#949494"/>
<stop offset="0.591347" stop-color="#5F5F5F"/>
<stop offset="0.86058" stop-color="#2F2F2F"/>
<stop offset="1" stop-color="#565656"/>
</linearGradient>
</defs>
</svg>
