<svg width="25" height="25" viewBox="0 0 25 25" fill="none" xmlns="http://www.w3.org/2000/svg"><rect x="0.5" y="0.203125" width="24" height="24" rx="12" fill="#50AF95"></rect><path fill-rule="evenodd" clip-rule="evenodd" d="M13.808 12.7104C13.7357 12.7159 13.3624 12.7381 12.5297 12.7381C11.8674 12.7381 11.3971 12.7183 11.2321 12.7104C8.67251 12.5978 6.76198 12.1523 6.76198 11.6188C6.76198 11.0853 8.67251 10.6403 11.2321 10.5259V12.2667C11.3995 12.2787 11.8788 12.307 12.5411 12.307C13.3359 12.307 13.7339 12.2739 13.8056 12.2673V10.5271C16.3598 10.6409 18.2661 11.0865 18.2661 11.6188C18.2661 12.1511 16.3604 12.5966 13.8056 12.7098L13.808 12.7104ZM13.808 10.3471V8.78943H17.3725V6.41406H7.66757V8.78943H11.2315V10.3465C8.33472 10.4796 6.15625 11.0534 6.15625 11.741C6.15625 12.4286 8.33472 13.0019 11.2315 13.1355V18.1271H13.8074V13.1337C16.6976 13.0007 18.8724 12.4274 18.8724 11.7404C18.8724 11.0534 16.6994 10.4802 13.8074 10.3465L13.808 10.3471Z" fill="white"></path><rect x="14.375" y="14.0781" width="10.125" height="10.125" rx="5.0625" fill="#F3F8F7"></rect><path d="M19.5888 15.5625L19.5384 15.7334V20.6926L19.5888 20.7428L21.8963 19.3821L19.5888 15.5625Z" fill="#202125"></path><path d="M19.5888 15.5625L17.2812 19.3821L19.5888 20.7428L19.5888 18.3358L19.5888 15.5625Z" fill="#202125"></path><path d="M19.5888 21.1786L19.5604 21.2132V22.9797L19.5888 23.0625L21.8977 19.8186L19.5888 21.1786Z" fill="#202125"></path><path d="M19.5888 23.0625V21.1786L17.2813 19.8186L19.5888 23.0625Z" fill="#202125"></path><path d="M19.5888 20.7428L21.8963 19.3821L19.5888 18.3358L19.5888 20.7428Z" fill="#202125"></path><path d="M17.2812 19.3821L19.5888 20.7428L19.5888 18.3358L17.2812 19.3821Z" fill="#202125"></path><path d="M21.9125 19.4103L19.6053 20.7708C19.5951 20.7768 19.5824 20.7768 19.5722 20.7708L17.265 19.4103L17.2647 19.4101L17.2812 19.3821M21.9125 19.4103L17.3155 19.4023L17.3093 19.3986L17.3091 19.3989L17.2812 19.3821M21.9125 19.4103L21.9128 19.4101L21.8963 19.3821M21.9125 19.4103L21.8665 19.3328L21.9097 19.3524L21.8963 19.3821M17.2812 19.3821L17.2678 19.3524L17.311 19.3328L17.2981 19.3542L17.2978 19.354L17.2812 19.3821ZM21.8963 19.3821L21.8684 19.3989L21.8682 19.3986L21.8963 19.3821ZM21.8811 19.7905L19.5888 21.1408L17.2978 19.7905C17.2845 19.7827 17.2676 19.7852 17.2573 19.7965C17.2469 19.8079 17.2458 19.8249 17.2547 19.8374L19.5622 23.0814C19.5683 23.09 19.5782 23.0951 19.5888 23.0951C19.5993 23.0951 19.6092 23.09 19.6153 23.0814L21.9242 19.8375C21.9331 19.825 21.932 19.8079 21.9217 19.7966C21.9113 19.7853 21.8944 19.7827 21.8811 19.7905Z" stroke="#202125" stroke-width="0.0651343" stroke-linejoin="round"></path></svg>