<svg width="24" height="24" viewBox="0 0 24 24" fill="none" xmlns="http://www.w3.org/2000/svg">
<g clip-path="url(#clip0_6_20809)">
<path d="M15.6106 6.20664C17.3246 6.20664 18.714 4.81723 18.714 3.10332C18.714 1.3894 17.3246 0 15.6106 0C13.8967 0 12.5073 1.3894 12.5073 3.10332C12.5073 4.81723 13.8967 6.20664 15.6106 6.20664Z" fill="url(#paint0_linear_6_20809)"/>
<path d="M8.55498 3.52405C6.84104 3.52405 5.45166 4.91343 5.45166 6.62737C5.45166 6.75904 5.4608 6.88851 5.47674 7.01587H11.6332C11.6491 6.88855 11.6583 6.75904 11.6583 6.62737C11.6583 4.91347 10.2689 3.52405 8.55498 3.52405Z" fill="url(#paint1_linear_6_20809)"/>
<path d="M14.6693 12.1915H21.3492V9.62465C21.3492 8.99371 20.8377 8.4823 20.2069 8.4823H2.18239C1.55145 8.4823 1.04004 8.9938 1.04004 9.62465V22.8577C1.04004 23.4886 1.55145 24 2.18239 24H20.2069C20.8378 24 21.3492 23.4886 21.3492 22.8577V20.2908H14.6693C13.2931 20.2908 12.1735 19.1713 12.1735 17.7951V14.6872C12.1735 13.311 13.293 12.1915 14.6693 12.1915Z" fill="url(#paint2_linear_6_20809)"/>
<path d="M22.0245 13.7513H14.6693C14.1524 13.7513 13.7334 14.1703 13.7334 14.6872V17.7951C13.7334 18.312 14.1524 18.731 14.6693 18.731H22.0245C22.5414 18.731 22.9604 18.312 22.9604 17.7951V14.6872C22.9604 14.1703 22.5413 13.7513 22.0245 13.7513ZM16.2175 17.3397C15.6108 17.3397 15.119 16.8479 15.119 16.2412C15.119 15.6345 15.6108 15.1426 16.2175 15.1426C16.8242 15.1426 17.316 15.6345 17.316 16.2412C17.316 16.8479 16.8242 17.3397 16.2175 17.3397Z" fill="url(#paint3_linear_6_20809)"/>
</g>
<defs>
<linearGradient id="paint0_linear_6_20809" x1="13.2214" y1="9.83093e-08" x2="17.5477" y2="6.332" gradientUnits="userSpaceOnUse">
<stop stop-color="#00FFD5"/>
<stop offset="1" stop-color="#00FF80"/>
</linearGradient>
<linearGradient id="paint1_linear_6_20809" x1="6.16573" y1="3.52405" x2="7.91572" y2="8.07669" gradientUnits="userSpaceOnUse">
<stop stop-color="#00FFD5"/>
<stop offset="1" stop-color="#00FF80"/>
</linearGradient>
<linearGradient id="paint2_linear_6_20809" x1="3.37661" y1="8.4823" x2="12.903" y2="26.7305" gradientUnits="userSpaceOnUse">
<stop stop-color="#00FFD5"/>
<stop offset="1" stop-color="#00FF80"/>
</linearGradient>
<linearGradient id="paint3_linear_6_20809" x1="14.795" y1="13.7513" x2="17.2138" y2="20.3112" gradientUnits="userSpaceOnUse">
<stop stop-color="#00FFD5"/>
<stop offset="1" stop-color="#00FF80"/>
</linearGradient>
<clipPath id="clip0_6_20809">
<rect width="24" height="24" fill="white"/>
</clipPath>
</defs>
</svg>
