<svg width="40" height="40" viewBox="0 0 40 40" fill="none" xmlns="http://www.w3.org/2000/svg">
<rect x="0.5" y="0.5" width="39" height="39" rx="19.5" fill="white" fill-opacity="0.04"/>
<rect x="0.5" y="0.5" width="39" height="39" rx="19.5" stroke="url(#paint0_linear_6_30413)"/>
<rect x="0.5" y="0.5" width="39" height="39" rx="19.5" stroke="url(#paint1_linear_6_30413)" stroke-opacity="0.12"/>
<g clip-path="url(#clip0_6_30413)">
<path d="M19.9999 10.0667C23.4432 10.0667 26.6759 10.97 29.4732 12.5533C29.5659 12.6053 29.6239 12.7027 29.6265 12.8087C29.6305 12.97 29.6325 13.1313 29.6325 13.294C29.6325 13.6413 29.6232 13.9867 29.6052 14.33C29.5585 15.2047 29.2819 16.0553 28.7705 16.766C26.4039 20.0547 22.5432 22.1967 18.1819 22.1967C16.0712 22.1967 14.0779 21.6947 12.3145 20.8047C14.5559 22.2707 17.2345 23.1233 20.1119 23.1233C22.7412 23.1233 25.2039 22.412 27.3192 21.1707C27.5832 21.016 27.9045 21.2847 27.7732 21.5613C26.1185 25.0393 23.4519 27.9433 20.1539 29.892C20.0592 29.948 19.9412 29.948 19.8465 29.892C16.5479 27.9427 13.8805 25.038 12.2259 21.5587C11.8772 20.8253 11.9105 19.9647 12.3445 19.2787C14.6545 15.6267 18.7285 13.2013 23.3699 13.2013C25.4805 13.2013 27.4739 13.7033 29.2372 14.5933C26.9959 13.1273 24.3172 12.2747 21.4392 12.2747C17.4032 12.2747 13.7585 13.9513 11.1639 16.646C10.9872 16.8293 10.6739 16.7427 10.6319 16.492C10.4579 15.452 10.3672 14.3833 10.3672 13.294C10.3672 13.132 10.3692 12.97 10.3732 12.8087C10.3759 12.7027 10.4339 12.6053 10.5265 12.5533C13.3239 10.97 16.5565 10.0667 19.9999 10.0667Z" fill="url(#paint2_linear_6_30413)"/>
</g>
<defs>
<linearGradient id="paint0_linear_6_30413" x1="13.6145" y1="-1.31228e-06" x2="34.0314" y2="10.9689" gradientUnits="userSpaceOnUse">
<stop stop-color="#DBDBEC" stop-opacity="0"/>
<stop offset="0.475961" stop-color="#DBDBEC" stop-opacity="0.32"/>
<stop offset="1" stop-color="#DBDBEC" stop-opacity="0"/>
</linearGradient>
<linearGradient id="paint1_linear_6_30413" x1="26.2141" y1="0" x2="26.2141" y2="77.4312" gradientUnits="userSpaceOnUse">
<stop stop-color="#C8CAD5" stop-opacity="0"/>
<stop offset="1" stop-color="#A4A9C2"/>
</linearGradient>
<linearGradient id="paint2_linear_6_30413" x1="12.5837" y1="10.0667" x2="26.582" y2="29.9339" gradientUnits="userSpaceOnUse">
<stop stop-color="#00FFD5"/>
<stop offset="1" stop-color="#00FF80"/>
</linearGradient>
<clipPath id="clip0_6_30413">
<rect width="20" height="20" fill="white" transform="translate(10 10)"/>
</clipPath>
</defs>
</svg>
