<?xml version="1.0" encoding="utf-8"?>
<svg xmlns="http://www.w3.org/2000/svg" width="24" height="24" viewBox="0 0 24 24" fill="none">
<path d="M11.9997 1.39062C15.6776 1.39062 19.13 2.3558 22.1181 4.04637C22.2168 4.10252 22.279 4.20572 22.282 4.31954C22.2866 4.49178 22.2889 4.66478 22.2889 4.83779C22.2889 5.20883 22.279 5.5776 22.2593 5.94409C22.2099 6.87816 21.914 7.78718 21.3677 8.54597C18.8402 12.0591 14.7162 14.3461 10.0588 14.3461C7.80442 14.3461 5.67602 13.8104 3.79196 12.8589C6.18517 14.425 9.04655 15.3356 12.1204 15.3356C14.9286 15.3356 17.5594 14.5753 19.8183 13.2497C20.0998 13.0843 20.4435 13.3718 20.3031 13.667C18.5359 17.382 15.6874 20.4832 12.1652 22.5645C12.0642 22.6245 11.9383 22.6245 11.8366 22.5645C8.31356 20.4824 5.46432 17.3805 3.69711 13.664C3.32455 12.8809 3.36097 11.9613 3.82383 11.229C6.29064 7.32812 10.6423 4.73763 15.5994 4.73763C17.8538 4.73763 19.9829 5.27333 21.8662 6.22484C19.473 4.65871 16.6116 3.74817 13.5378 3.74817C9.22714 3.74817 5.33457 5.5389 2.56349 8.41697C2.37531 8.61274 2.03993 8.52017 1.99516 8.25232C1.80926 7.14146 1.71289 6.00024 1.71289 4.83627C1.71289 4.66326 1.71517 4.49026 1.71972 4.31802C1.72275 4.20496 1.78498 4.10101 1.88362 4.04485C4.86944 2.3558 8.32191 1.39062 11.9997 1.39062Z" fill="white"/>
</svg>