<?xml version="1.0" encoding="utf-8"?>
<svg xmlns="http://www.w3.org/2000/svg" width="20" height="20" viewBox="0 0 20 20" fill="none">
<path d="M10.0066 3.022e-07C15.5369 0.00134859 20.003 4.47975 20 10.0209C19.9969 15.5353 15.5123 20.0032 9.98371 19.9998C4.45189 19.9964 -0.00548113 15.5092 5.05893e-06 9.94931C0.00541674 4.46532 4.49779 -0.00134143 10.0066 3.022e-07ZM3.51452 9.29033C3.50086 9.9302 3.67839 10.2756 3.97842 10.5744C5.17295 11.7643 6.3623 12.9594 7.55623 14.1499C8.24848 14.8402 9.14353 14.8312 9.83121 14.1293C10.7378 13.2041 11.64 12.2745 12.5475 11.3502C13.7151 10.1611 14.8878 8.97701 16.055 7.78762C16.6977 7.13276 16.6234 6.12535 15.9009 5.60679C15.3088 5.18189 14.5549 5.27324 13.9954 5.84068C12.423 7.43514 10.8519 9.03075 9.27963 10.6253C8.83731 11.0739 8.48338 11.0758 8.0423 10.6353C7.32367 9.91779 6.61402 9.19092 5.88304 8.48618C5.44914 8.06785 4.9181 7.97876 4.36608 8.21579C3.81493 8.45245 3.53268 8.89652 3.51452 9.29033Z" fill="url(#paint0_linear_1_6675)"/>
<defs>
<linearGradient id="paint0_linear_1_6675" x1="2.30099" y1="3.16785e-07" x2="16.2417" y2="20.4039" gradientUnits="userSpaceOnUse">
<stop stop-color="#00FFD5"/>
<stop offset="1" stop-color="#00FF80"/>
</linearGradient>
</defs>
</svg>