<?xml version="1.0" encoding="utf-8"?>
<svg xmlns="http://www.w3.org/2000/svg" width="20" height="21" viewBox="0 0 20 21" fill="none">
<path d="M9.99877 0.753907C15.5291 0.755255 19.9952 5.23365 19.9921 10.7748C19.9891 16.2892 15.5045 20.7571 9.9759 20.7537C4.44408 20.7503 -0.0132936 16.2631 -0.00780744 10.7032C-0.00239576 5.21923 4.48998 0.752565 9.99877 0.753907ZM3.50671 10.0442C3.49304 10.6841 3.67057 11.0295 3.9706 11.3283C5.16514 12.5182 6.35449 13.7133 7.54842 14.9038C8.24066 15.5941 9.13571 15.5851 9.8234 14.8832C10.73 13.958 11.6322 13.0284 12.5397 12.1041C13.7073 10.915 14.8799 9.73091 16.0472 8.54152C16.6899 7.88667 16.6156 6.87926 15.8931 6.36069C15.301 5.9358 14.5471 6.02715 13.9876 6.59459C12.4152 8.18905 10.8441 9.78466 9.27182 11.3792C8.82949 11.8278 8.47557 11.8297 8.03448 11.3893C7.31586 10.6717 6.60621 9.94483 5.87523 9.24009C5.44133 8.82176 4.91029 8.73267 4.35827 8.9697C3.80712 9.20636 3.52487 9.65043 3.50671 10.0442Z" fill="url(#paint0_linear_12941_25525)"/>
<defs>
<linearGradient id="paint0_linear_12941_25525" x1="2.29318" y1="0.753907" x2="16.2339" y2="21.1578" gradientUnits="userSpaceOnUse">
<stop stop-color="#00FFD5"/>
<stop offset="1" stop-color="#00FF80"/>
</linearGradient>
</defs>
</svg>