<?xml version="1.0" encoding="utf-8"?>
<svg xmlns="http://www.w3.org/2000/svg" width="20" height="20" viewBox="0 0 20 20" fill="none">
<path d="M12.9163 6.25004C12.9163 7.86087 11.6105 9.16671 9.99967 9.16671C8.38884 9.16671 7.08301 7.86087 7.08301 6.25004C7.08301 4.63921 8.38884 3.33337 9.99967 3.33337C11.6105 3.33337 12.9163 4.63921 12.9163 6.25004Z" fill="white"/>
<path d="M15 13.75C15 15.3609 12.7614 16.6667 10 16.6667C7.23858 16.6667 5 15.3609 5 13.75C5 12.1392 7.23858 10.8334 10 10.8334C12.7614 10.8334 15 12.1392 15 13.75Z" fill="white"/>
<path d="M5.93537 4.16663C6.08325 4.16663 6.22762 4.18114 6.36704 4.20876C6.0274 4.81201 5.83366 5.50836 5.83366 6.24996C5.83366 6.9735 6.01808 7.65397 6.34249 8.24693C6.2107 8.27148 6.07459 8.28435 5.93537 8.28435C4.75669 8.28435 3.80118 7.36256 3.80118 6.22549C3.80118 5.08841 4.75669 4.16663 5.93537 4.16663Z" fill="white"/>
<path d="M4.53977 15.8216C4.06651 15.2559 3.75033 14.5616 3.75033 13.75C3.75033 12.9631 4.04747 12.2866 4.49681 11.7306C2.90957 11.8537 1.66699 12.7218 1.66699 13.7744C1.66699 14.837 2.93141 15.7115 4.53977 15.8216Z" fill="white"/>
<path d="M14.1662 6.24996C14.1662 6.9735 13.9818 7.65398 13.6574 8.24693C13.7891 8.27148 13.9253 8.28435 14.0645 8.28435C15.2432 8.28435 16.1987 7.36256 16.1987 6.22549C16.1987 5.08841 15.2432 4.16663 14.0645 4.16663C13.9166 4.16663 13.7722 4.18114 13.6328 4.20876C13.9724 4.81201 14.1662 5.50836 14.1662 6.24996Z" fill="white"/>
<path d="M15.4601 15.8216C17.0684 15.7115 18.3329 14.837 18.3329 13.7744C18.3329 12.7218 17.0903 11.8537 15.503 11.7306C15.9524 12.2866 16.2495 12.9631 16.2495 13.75C16.2495 14.5616 15.9333 15.2559 15.4601 15.8216Z" fill="white"/>
</svg>