<?xml version="1.0" encoding="utf-8"?>
<svg xmlns="http://www.w3.org/2000/svg" width="24" height="24" viewBox="0 0 24 24" fill="none">
<path d="M20 18C20 20.2091 16.4183 22 12 22C7.58172 22 4 20.2091 4 18V13.974C4.50221 14.5906 5.21495 15.1029 6.00774 15.4992C7.58004 16.2854 9.69967 16.75 12 16.75C14.3003 16.75 16.42 16.2854 17.9923 15.4992C18.7851 15.1029 19.4978 14.5906 20 13.974V18Z" fill="white"/>
<path d="M12 10.75C14.3003 10.75 16.42 10.2854 17.9923 9.49925C18.7851 9.10285 19.4978 8.59059 20 7.97397V12C20 12.5 18.2143 13.5911 17.3214 14.1576C15.9983 14.8192 14.118 15.25 12 15.25C9.88205 15.25 8.00168 14.8192 6.67856 14.1576C5.5 13.5683 4 12.5 4 12V7.97397C4.50221 8.59059 5.21495 9.10285 6.00774 9.49925C7.58004 10.2854 9.69967 10.75 12 10.75Z" fill="white"/>
<path d="M17.3214 8.15761C15.9983 8.81917 14.118 9.25 12 9.25C9.88205 9.25 8.00168 8.81917 6.67856 8.15761C6.15633 7.95302 4.97246 7.29613 4.16651 6.23379C4.0541 6.08562 4.00549 5.89893 4.03149 5.71477C4.05477 5.5499 4.08953 5.36911 4.13578 5.26226C4.82815 3.40554 8.0858 2 12 2C15.9142 2 19.1718 3.40554 19.8642 5.26226C19.9105 5.36911 19.9452 5.5499 19.9685 5.71477C19.9945 5.89893 19.9459 6.08562 19.8335 6.23379C19.0275 7.29613 17.8437 7.95302 17.3214 8.15761Z" fill="white"/>
</svg>