<?xml version="1.0" encoding="utf-8"?>
<svg xmlns="http://www.w3.org/2000/svg" width="72" height="72" viewBox="0 0 72 72" fill="none">
<g filter="url(#filter0_ii_1_8956)">
<path d="M0 24.6857C0 16.0449 0 11.7245 1.68161 8.42415C3.1608 5.52107 5.52107 3.1608 8.42415 1.68161C11.7245 0 16.0449 0 24.6857 0H47.3143C55.9551 0 60.2755 0 63.5759 1.68161C66.4789 3.1608 68.8392 5.52107 70.3184 8.42415C72 11.7245 72 16.0449 72 24.6857V47.3143C72 55.9551 72 60.2755 70.3184 63.5759C68.8392 66.4789 66.4789 68.8392 63.5759 70.3184C60.2755 72 55.9551 72 47.3143 72H24.6857C16.0449 72 11.7245 72 8.42415 70.3184C5.52107 68.8392 3.1608 66.4789 1.68161 63.5759C0 60.2755 0 55.9551 0 47.3143V24.6857Z" fill="url(#paint0_linear_1_8956)" fill-opacity="0.5"/>
<path d="M0 24.6857C0 16.0449 0 11.7245 1.68161 8.42415C3.1608 5.52107 5.52107 3.1608 8.42415 1.68161C11.7245 0 16.0449 0 24.6857 0H47.3143C55.9551 0 60.2755 0 63.5759 1.68161C66.4789 3.1608 68.8392 5.52107 70.3184 8.42415C72 11.7245 72 16.0449 72 24.6857V47.3143C72 55.9551 72 60.2755 70.3184 63.5759C68.8392 66.4789 66.4789 68.8392 63.5759 70.3184C60.2755 72 55.9551 72 47.3143 72H24.6857C16.0449 72 11.7245 72 8.42415 70.3184C5.52107 68.8392 3.1608 66.4789 1.68161 63.5759C0 60.2755 0 55.9551 0 47.3143V24.6857Z" fill="url(#paint1_radial_1_8956)" fill-opacity="0.12"/>
<path d="M24.6855 0.385742H47.3145C51.641 0.385742 54.8627 0.386134 57.416 0.594727C59.9648 0.802969 61.8137 1.21699 63.4004 2.02539C66.2309 3.4676 68.5324 5.76911 69.9746 8.59961C70.783 10.1863 71.197 12.0352 71.4053 14.584C71.6139 17.1373 71.6143 20.359 71.6143 24.6855V47.3145C71.6143 51.641 71.6139 54.8627 71.4053 57.416C71.197 59.9648 70.783 61.8137 69.9746 63.4004C68.5324 66.2309 66.2309 68.5324 63.4004 69.9746C61.8137 70.783 59.9648 71.197 57.416 71.4053C54.8627 71.6139 51.641 71.6143 47.3145 71.6143H24.6855C20.359 71.6143 17.1373 71.6139 14.584 71.4053C12.0352 71.197 10.1863 70.783 8.59961 69.9746C5.76911 68.5324 3.4676 66.2309 2.02539 63.4004C1.21699 61.8137 0.802969 59.9648 0.594727 57.416C0.386134 54.8627 0.385742 51.641 0.385742 47.3145V24.6855C0.385742 20.359 0.386134 17.1373 0.594727 14.584C0.802969 12.0352 1.21699 10.1863 2.02539 8.59961C3.4676 5.76911 5.76911 3.4676 8.59961 2.02539C10.1863 1.21699 12.0352 0.802969 14.584 0.594727C17.1373 0.386134 20.359 0.385742 24.6855 0.385742Z" stroke="url(#paint2_linear_1_8956)" stroke-width="0.771429"/>
<path d="M24.6855 0.385742H47.3145C51.641 0.385742 54.8627 0.386134 57.416 0.594727C59.9648 0.802969 61.8137 1.21699 63.4004 2.02539C66.2309 3.4676 68.5324 5.76911 69.9746 8.59961C70.783 10.1863 71.197 12.0352 71.4053 14.584C71.6139 17.1373 71.6143 20.359 71.6143 24.6855V47.3145C71.6143 51.641 71.6139 54.8627 71.4053 57.416C71.197 59.9648 70.783 61.8137 69.9746 63.4004C68.5324 66.2309 66.2309 68.5324 63.4004 69.9746C61.8137 70.783 59.9648 71.197 57.416 71.4053C54.8627 71.6139 51.641 71.6143 47.3145 71.6143H24.6855C20.359 71.6143 17.1373 71.6139 14.584 71.4053C12.0352 71.197 10.1863 70.783 8.59961 69.9746C5.76911 68.5324 3.4676 66.2309 2.02539 63.4004C1.21699 61.8137 0.802969 59.9648 0.594727 57.416C0.386134 54.8627 0.385742 51.641 0.385742 47.3145V24.6855C0.385742 20.359 0.386134 17.1373 0.594727 14.584C0.802969 12.0352 1.21699 10.1863 2.02539 8.59961C3.4676 5.76911 5.76911 3.4676 8.59961 2.02539C10.1863 1.21699 12.0352 0.802969 14.584 0.594727C17.1373 0.386134 20.359 0.385742 24.6855 0.385742Z" stroke="url(#paint3_linear_1_8956)" stroke-width="0.771429"/>
<path d="M45.0964 27.5571C43.3999 26.7634 41.586 26.1865 39.6895 25.858C39.4566 26.2791 39.1845 26.8455 38.9969 27.296C36.981 26.9928 34.9836 26.9928 33.0047 27.296C32.8171 26.8455 32.5388 26.2791 32.3039 25.858C30.4054 26.1865 28.5893 26.7655 26.8929 27.5613C23.4711 32.7321 22.5435 37.7744 23.0073 42.7452C25.2768 44.44 27.4762 45.4695 29.6385 46.1432C30.1724 45.4085 30.6486 44.6274 31.0588 43.8042C30.2776 43.5073 29.5293 43.141 28.8223 42.7157C29.0099 42.5767 29.1933 42.4315 29.3706 42.282C33.6828 44.2989 38.3682 44.2989 42.629 42.282C42.8083 42.4315 42.9918 42.5767 43.1773 42.7157C42.4682 43.1431 41.7179 43.5094 40.9367 43.8063C41.3469 44.6274 41.821 45.4106 42.3569 46.1453C44.5213 45.4716 46.7228 44.4421 48.9923 42.7452C49.5365 36.9828 48.0626 31.9868 45.0964 27.5571ZM31.6463 39.6882C30.3518 39.6882 29.2902 38.4797 29.2902 37.0081C29.2902 35.5364 30.3291 34.3258 31.6463 34.3258C32.9635 34.3258 34.025 35.5343 34.0024 37.0081C34.0044 38.4797 32.9635 39.6882 31.6463 39.6882ZM40.3533 39.6882C39.0588 39.6882 37.9972 38.4797 37.9972 37.0081C37.9972 35.5364 39.0361 34.3258 40.3533 34.3258C41.6705 34.3258 42.7321 35.5343 42.7094 37.0081C42.7094 38.4797 41.6705 39.6882 40.3533 39.6882Z" fill="white"/>
</g>
<defs>
<filter id="filter0_ii_1_8956" x="0" y="0" width="72" height="72" filterUnits="userSpaceOnUse" color-interpolation-filters="sRGB">
<feFlood flood-opacity="0" result="BackgroundImageFix"/>
<feBlend mode="normal" in="SourceGraphic" in2="BackgroundImageFix" result="shape"/>
<feColorMatrix in="SourceAlpha" type="matrix" values="0 0 0 0 0 0 0 0 0 0 0 0 0 0 0 0 0 0 127 0" result="hardAlpha"/>
<feOffset dy="1.28571"/>
<feComposite in2="hardAlpha" operator="arithmetic" k2="-1" k3="1"/>
<feColorMatrix type="matrix" values="0 0 0 0 0.858824 0 0 0 0 0.858824 0 0 0 0 0.92549 0 0 0 0.12 0"/>
<feBlend mode="normal" in2="shape" result="effect1_innerShadow_1_8956"/>
<feColorMatrix in="SourceAlpha" type="matrix" values="0 0 0 0 0 0 0 0 0 0 0 0 0 0 0 0 0 0 127 0" result="hardAlpha"/>
<feOffset dy="-2.57143"/>
<feComposite in2="hardAlpha" operator="arithmetic" k2="-1" k3="1"/>
<feColorMatrix type="matrix" values="0 0 0 0 0 0 0 0 0 0 0 0 0 0 0 0 0 0 0.25 0"/>
<feBlend mode="normal" in2="effect1_innerShadow_1_8956" result="effect2_innerShadow_1_8956"/>
</filter>
<linearGradient id="paint0_linear_1_8956" x1="0" y1="0" x2="78.8046" y2="4.92295" gradientUnits="userSpaceOnUse">
<stop stop-color="#DBDBEC" stop-opacity="0.04"/>
<stop offset="1" stop-color="#DBDBEC" stop-opacity="0.12"/>
</linearGradient>
<radialGradient id="paint1_radial_1_8956" cx="0" cy="0" r="1" gradientUnits="userSpaceOnUse" gradientTransform="translate(36 72) rotate(-90) scale(45.1766)">
<stop stop-color="#DBDBEC"/>
<stop offset="1" stop-color="#DBDBEC" stop-opacity="0"/>
</radialGradient>
<linearGradient id="paint2_linear_1_8956" x1="4.54672" y1="4.76021" x2="63.754" y2="9.72727" gradientUnits="userSpaceOnUse">
<stop stop-color="#DBDBEC" stop-opacity="0.04"/>
<stop offset="0.346152" stop-color="#DBDBEC" stop-opacity="0.16"/>
<stop offset="0.557693" stop-color="#DBDBEC" stop-opacity="0.12"/>
<stop offset="1" stop-color="#DBDBEC" stop-opacity="0.08"/>
</linearGradient>
<linearGradient id="paint3_linear_1_8956" x1="24.5061" y1="-2.36211e-06" x2="61.2565" y2="19.744" gradientUnits="userSpaceOnUse">
<stop stop-color="#DBDBEC" stop-opacity="0"/>
<stop offset="0.475961" stop-color="#DBDBEC" stop-opacity="0.32"/>
<stop offset="1" stop-color="#DBDBEC" stop-opacity="0"/>
</linearGradient>
</defs>
</svg>