<?xml version="1.0" encoding="utf-8"?>
<svg xmlns="http://www.w3.org/2000/svg" width="15" height="14" viewBox="0 0 15 14" fill="none">
<g clip-path="url(#clip0_3_568)">
<path d="M12.159 2.46622C11.2528 2.04221 10.2838 1.73406 9.27071 1.55859C9.14629 1.78353 9.00094 2.08608 8.90072 2.32676C7.82381 2.1648 6.7568 2.1648 5.69969 2.32676C5.59949 2.08608 5.45084 1.78353 5.32531 1.55859C4.31115 1.73406 3.34104 2.04334 2.4348 2.46847C0.606891 5.23067 0.111376 7.92426 0.359134 10.5796C1.5715 11.485 2.74642 12.0349 3.90152 12.3948C4.18672 12.0023 4.44108 11.5851 4.6602 11.1453C4.24287 10.9867 3.84316 10.7911 3.46548 10.5639C3.56567 10.4896 3.66368 10.412 3.75837 10.3322C6.06196 11.4096 8.56487 11.4096 10.8409 10.3322C10.9367 10.412 11.0347 10.4896 11.1338 10.5639C10.755 10.7922 10.3542 10.9879 9.93691 11.1465C10.156 11.5851 10.4093 12.0035 10.6956 12.396C11.8518 12.0361 13.0278 11.4861 14.2402 10.5796C14.5309 7.50138 13.7436 4.83253 12.159 2.46622ZM4.97404 8.94659C4.28252 8.94659 3.71542 8.30102 3.71542 7.51488C3.71542 6.72873 4.27041 6.08205 4.97404 6.08205C5.67768 6.08205 6.24476 6.7276 6.23265 7.51488C6.23374 8.30102 5.67768 8.94659 4.97404 8.94659ZM9.62528 8.94659C8.93377 8.94659 8.36667 8.30102 8.36667 7.51488C8.36667 6.72873 8.92164 6.08205 9.62528 6.08205C10.3289 6.08205 10.896 6.7276 10.8839 7.51488C10.8839 8.30102 10.3289 8.94659 9.62528 8.94659Z" fill="white"/>
</g>
<defs>
<clipPath id="clip0_3_568">
<rect width="14" height="14" fill="white" transform="translate(0.299805)"/>
</clipPath>
</defs>
</svg>