<?xml version="1.0" encoding="utf-8"?>
<svg xmlns="http://www.w3.org/2000/svg" width="28" height="28" viewBox="0 0 28 28" fill="none">
<mask id="mask0_1_21" style="mask-type:luminance" maskUnits="userSpaceOnUse" x="0" y="0" width="28" height="28">
<path d="M0 0H27.4285V27.4285H0V0Z" fill="white"/>
</mask>
<g mask="url(#mask0_1_21)">
<path fill-rule="evenodd" clip-rule="evenodd" d="M0 13.7908C0 20.6102 4.95198 26.2788 11.4285 27.4285V17.5234H7.99997V13.7142H11.4285V10.6662C11.4285 7.23769 13.6377 5.33369 16.7622 5.33369C17.7519 5.33369 18.8194 5.48569 19.8091 5.63769V9.14282H18.0571C16.3805 9.14282 15.9999 9.98053 15.9999 11.048V13.7142H19.6571L19.0479 17.5234H15.9999V27.4285C22.4765 26.2788 27.4285 20.6102 27.4285 13.7908C27.4285 6.20569 21.2571 0 13.7142 0C6.17141 0 0 6.20569 0 13.7908Z" fill="white"/>
</g>
</svg>