<?xml version="1.0" encoding="utf-8"?>
<svg xmlns="http://www.w3.org/2000/svg" width="56" height="56" viewBox="0 0 56 56" fill="none">
<g filter="url(#filter0_ii_13152_45555)">
<path d="M0 19.2C0 12.4794 0 9.11905 1.30792 6.55211C2.4584 4.29417 4.29417 2.4584 6.55211 1.30792C9.11905 0 12.4794 0 19.2 0H36.8C43.5206 0 46.8809 0 49.4479 1.30792C51.7058 2.4584 53.5416 4.29417 54.6921 6.55211C56 9.11905 56 12.4794 56 19.2V36.8C56 43.5206 56 46.8809 54.6921 49.4479C53.5416 51.7058 51.7058 53.5416 49.4479 54.6921C46.8809 56 43.5206 56 36.8 56H19.2C12.4794 56 9.11905 56 6.55211 54.6921C4.29417 53.5416 2.4584 51.7058 1.30792 49.4479C0 46.8809 0 43.5206 0 36.8V19.2Z" fill="url(#paint0_linear_13152_45555)" fill-opacity="0.5"/>
<path d="M0 19.2C0 12.4794 0 9.11905 1.30792 6.55211C2.4584 4.29417 4.29417 2.4584 6.55211 1.30792C9.11905 0 12.4794 0 19.2 0H36.8C43.5206 0 46.8809 0 49.4479 1.30792C51.7058 2.4584 53.5416 4.29417 54.6921 6.55211C56 9.11905 56 12.4794 56 19.2V36.8C56 43.5206 56 46.8809 54.6921 49.4479C53.5416 51.7058 51.7058 53.5416 49.4479 54.6921C46.8809 56 43.5206 56 36.8 56H19.2C12.4794 56 9.11905 56 6.55211 54.6921C4.29417 53.5416 2.4584 51.7058 1.30792 49.4479C0 46.8809 0 43.5206 0 36.8V19.2Z" fill="url(#paint1_radial_13152_45555)" fill-opacity="0.12"/>
<path d="M19.2002 0.299805H36.7998C40.1651 0.299805 42.6713 0.30063 44.6572 0.462891C46.6396 0.624862 48.0774 0.946435 49.3115 1.5752C51.513 2.69691 53.3031 4.48698 54.4248 6.68848C55.0536 7.92255 55.3751 9.36043 55.5371 11.3428C55.6994 13.3287 55.7002 15.8349 55.7002 19.2002V36.7998C55.7002 40.1651 55.6994 42.6713 55.5371 44.6572C55.3751 46.6396 55.0536 48.0774 54.4248 49.3115C53.3031 51.513 51.513 53.3031 49.3115 54.4248C48.0774 55.0536 46.6396 55.3751 44.6572 55.5371C42.6713 55.6994 40.1651 55.7002 36.7998 55.7002H19.2002C15.8349 55.7002 13.3287 55.6994 11.3428 55.5371C9.36043 55.3751 7.92255 55.0536 6.68848 54.4248C4.48698 53.3031 2.69691 51.513 1.5752 49.3115C0.946435 48.0774 0.624862 46.6396 0.462891 44.6572C0.30063 42.6713 0.299805 40.1651 0.299805 36.7998V19.2002C0.299805 15.8349 0.30063 13.3287 0.462891 11.3428C0.624862 9.36043 0.946434 7.92255 1.5752 6.68848C2.69691 4.48698 4.48698 2.69691 6.68848 1.5752C7.92255 0.946434 9.36043 0.624862 11.3428 0.462891C13.3287 0.30063 15.8349 0.299805 19.2002 0.299805Z" stroke="url(#paint2_linear_13152_45555)" stroke-width="0.6"/>
<path d="M19.2002 0.299805H36.7998C40.1651 0.299805 42.6713 0.30063 44.6572 0.462891C46.6396 0.624862 48.0774 0.946435 49.3115 1.5752C51.513 2.69691 53.3031 4.48698 54.4248 6.68848C55.0536 7.92255 55.3751 9.36043 55.5371 11.3428C55.6994 13.3287 55.7002 15.8349 55.7002 19.2002V36.7998C55.7002 40.1651 55.6994 42.6713 55.5371 44.6572C55.3751 46.6396 55.0536 48.0774 54.4248 49.3115C53.3031 51.513 51.513 53.3031 49.3115 54.4248C48.0774 55.0536 46.6396 55.3751 44.6572 55.5371C42.6713 55.6994 40.1651 55.7002 36.7998 55.7002H19.2002C15.8349 55.7002 13.3287 55.6994 11.3428 55.5371C9.36043 55.3751 7.92255 55.0536 6.68848 54.4248C4.48698 53.3031 2.69691 51.513 1.5752 49.3115C0.946435 48.0774 0.624862 46.6396 0.462891 44.6572C0.30063 42.6713 0.299805 40.1651 0.299805 36.7998V19.2002C0.299805 15.8349 0.30063 13.3287 0.462891 11.3428C0.624862 9.36043 0.946434 7.92255 1.5752 6.68848C2.69691 4.48698 4.48698 2.69691 6.68848 1.5752C7.92255 0.946434 9.36043 0.624862 11.3428 0.462891C13.3287 0.30063 15.8349 0.299805 19.2002 0.299805Z" stroke="url(#paint3_linear_13152_45555)" stroke-width="0.6"/>
<path d="M28 44C36.8366 44 44 36.8366 44 28C44 19.1634 36.8366 12 28 12C19.1634 12 12 19.1634 12 28C12 36.8366 19.1634 44 28 44Z" fill="#5F7EDD"/>
<path d="M27.9942 32.3571L22.6213 29.1797L27.9942 36.7536L33.3727 29.1797L27.9942 32.3571Z" fill="white"/>
<path d="M33.3729 28.164L27.9944 31.3414L22.616 28.164L27.9944 19.2412L33.3729 28.164Z" fill="white"/>
<path d="M33.3724 28.164L27.9939 25.7202V19.2412L33.3724 28.164Z" fill="#C1CCF7"/>
<path d="M33.3777 29.1795L27.9993 36.7534V32.3513L33.3777 29.1738V29.1795Z" fill="#C1CCF7"/>
<path d="M27.9939 25.7139V31.335L22.6211 28.1576L27.9939 25.7139Z" fill="#C1CCF7"/>
<path d="M33.3729 28.1625L27.9944 31.3399V25.7188L33.3729 28.1625Z" fill="#8198EE"/>
</g>
<defs>
<filter id="filter0_ii_13152_45555" x="0" y="0" width="56" height="56" filterUnits="userSpaceOnUse" color-interpolation-filters="sRGB">
<feFlood flood-opacity="0" result="BackgroundImageFix"/>
<feBlend mode="normal" in="SourceGraphic" in2="BackgroundImageFix" result="shape"/>
<feColorMatrix in="SourceAlpha" type="matrix" values="0 0 0 0 0 0 0 0 0 0 0 0 0 0 0 0 0 0 127 0" result="hardAlpha"/>
<feOffset dy="1"/>
<feComposite in2="hardAlpha" operator="arithmetic" k2="-1" k3="1"/>
<feColorMatrix type="matrix" values="0 0 0 0 0.858824 0 0 0 0 0.858824 0 0 0 0 0.92549 0 0 0 0.12 0"/>
<feBlend mode="normal" in2="shape" result="effect1_innerShadow_13152_45555"/>
<feColorMatrix in="SourceAlpha" type="matrix" values="0 0 0 0 0 0 0 0 0 0 0 0 0 0 0 0 0 0 127 0" result="hardAlpha"/>
<feOffset dy="-2"/>
<feComposite in2="hardAlpha" operator="arithmetic" k2="-1" k3="1"/>
<feColorMatrix type="matrix" values="0 0 0 0 0 0 0 0 0 0 0 0 0 0 0 0 0 0 0.25 0"/>
<feBlend mode="normal" in2="effect1_innerShadow_13152_45555" result="effect2_innerShadow_13152_45555"/>
</filter>
<linearGradient id="paint0_linear_13152_45555" x1="0" y1="0" x2="61.2925" y2="3.82896" gradientUnits="userSpaceOnUse">
<stop stop-color="#DBDBEC" stop-opacity="0.04"/>
<stop offset="1" stop-color="#DBDBEC" stop-opacity="0.12"/>
</linearGradient>
<radialGradient id="paint1_radial_13152_45555" cx="0" cy="0" r="1" gradientUnits="userSpaceOnUse" gradientTransform="translate(28 56) rotate(-90) scale(35.1373)">
<stop stop-color="#DBDBEC"/>
<stop offset="1" stop-color="#DBDBEC" stop-opacity="0"/>
</radialGradient>
<linearGradient id="paint2_linear_13152_45555" x1="3.53634" y1="3.70239" x2="49.5864" y2="7.56565" gradientUnits="userSpaceOnUse">
<stop stop-color="#DBDBEC" stop-opacity="0.04"/>
<stop offset="0.346152" stop-color="#DBDBEC" stop-opacity="0.16"/>
<stop offset="0.557693" stop-color="#DBDBEC" stop-opacity="0.12"/>
<stop offset="1" stop-color="#DBDBEC" stop-opacity="0.08"/>
</linearGradient>
<linearGradient id="paint3_linear_13152_45555" x1="19.0603" y1="-1.83719e-06" x2="47.6439" y2="15.3565" gradientUnits="userSpaceOnUse">
<stop stop-color="#DBDBEC" stop-opacity="0"/>
<stop offset="0.475961" stop-color="#DBDBEC" stop-opacity="0.32"/>
<stop offset="1" stop-color="#DBDBEC" stop-opacity="0"/>
</linearGradient>
</defs>
</svg>