<?xml version="1.0" encoding="utf-8"?>
<svg xmlns="http://www.w3.org/2000/svg" width="56" height="56" viewBox="0 0 56 56" fill="none">
<g filter="url(#filter0_ii_13152_45622)">
<path d="M0 19.2C0 12.4794 0 9.11905 1.30792 6.55211C2.4584 4.29417 4.29417 2.4584 6.55211 1.30792C9.11905 0 12.4794 0 19.2 0H36.8C43.5206 0 46.8809 0 49.4479 1.30792C51.7058 2.4584 53.5416 4.29417 54.6921 6.55211C56 9.11905 56 12.4794 56 19.2V36.8C56 43.5206 56 46.8809 54.6921 49.4479C53.5416 51.7058 51.7058 53.5416 49.4479 54.6921C46.8809 56 43.5206 56 36.8 56H19.2C12.4794 56 9.11905 56 6.55211 54.6921C4.29417 53.5416 2.4584 51.7058 1.30792 49.4479C0 46.8809 0 43.5206 0 36.8V19.2Z" fill="url(#paint0_linear_13152_45622)" fill-opacity="0.5"/>
<path d="M0 19.2C0 12.4794 0 9.11905 1.30792 6.55211C2.4584 4.29417 4.29417 2.4584 6.55211 1.30792C9.11905 0 12.4794 0 19.2 0H36.8C43.5206 0 46.8809 0 49.4479 1.30792C51.7058 2.4584 53.5416 4.29417 54.6921 6.55211C56 9.11905 56 12.4794 56 19.2V36.8C56 43.5206 56 46.8809 54.6921 49.4479C53.5416 51.7058 51.7058 53.5416 49.4479 54.6921C46.8809 56 43.5206 56 36.8 56H19.2C12.4794 56 9.11905 56 6.55211 54.6921C4.29417 53.5416 2.4584 51.7058 1.30792 49.4479C0 46.8809 0 43.5206 0 36.8V19.2Z" fill="url(#paint1_radial_13152_45622)" fill-opacity="0.12"/>
<path d="M19.2002 0.299805H36.7998C40.1651 0.299805 42.6713 0.30063 44.6572 0.462891C46.6396 0.624862 48.0774 0.946435 49.3115 1.5752C51.513 2.69691 53.3031 4.48698 54.4248 6.68848C55.0536 7.92255 55.3751 9.36043 55.5371 11.3428C55.6994 13.3287 55.7002 15.8349 55.7002 19.2002V36.7998C55.7002 40.1651 55.6994 42.6713 55.5371 44.6572C55.3751 46.6396 55.0536 48.0774 54.4248 49.3115C53.3031 51.513 51.513 53.3031 49.3115 54.4248C48.0774 55.0536 46.6396 55.3751 44.6572 55.5371C42.6713 55.6994 40.1651 55.7002 36.7998 55.7002H19.2002C15.8349 55.7002 13.3287 55.6994 11.3428 55.5371C9.36043 55.3751 7.92255 55.0536 6.68848 54.4248C4.48698 53.3031 2.69691 51.513 1.5752 49.3115C0.946435 48.0774 0.624862 46.6396 0.462891 44.6572C0.30063 42.6713 0.299805 40.1651 0.299805 36.7998V19.2002C0.299805 15.8349 0.30063 13.3287 0.462891 11.3428C0.624862 9.36043 0.946434 7.92255 1.5752 6.68848C2.69691 4.48698 4.48698 2.69691 6.68848 1.5752C7.92255 0.946434 9.36043 0.624862 11.3428 0.462891C13.3287 0.30063 15.8349 0.299805 19.2002 0.299805Z" stroke="url(#paint2_linear_13152_45622)" stroke-width="0.6"/>
<path d="M19.2002 0.299805H36.7998C40.1651 0.299805 42.6713 0.30063 44.6572 0.462891C46.6396 0.624862 48.0774 0.946435 49.3115 1.5752C51.513 2.69691 53.3031 4.48698 54.4248 6.68848C55.0536 7.92255 55.3751 9.36043 55.5371 11.3428C55.6994 13.3287 55.7002 15.8349 55.7002 19.2002V36.7998C55.7002 40.1651 55.6994 42.6713 55.5371 44.6572C55.3751 46.6396 55.0536 48.0774 54.4248 49.3115C53.3031 51.513 51.513 53.3031 49.3115 54.4248C48.0774 55.0536 46.6396 55.3751 44.6572 55.5371C42.6713 55.6994 40.1651 55.7002 36.7998 55.7002H19.2002C15.8349 55.7002 13.3287 55.6994 11.3428 55.5371C9.36043 55.3751 7.92255 55.0536 6.68848 54.4248C4.48698 53.3031 2.69691 51.513 1.5752 49.3115C0.946435 48.0774 0.624862 46.6396 0.462891 44.6572C0.30063 42.6713 0.299805 40.1651 0.299805 36.7998V19.2002C0.299805 15.8349 0.30063 13.3287 0.462891 11.3428C0.624862 9.36043 0.946434 7.92255 1.5752 6.68848C2.69691 4.48698 4.48698 2.69691 6.68848 1.5752C7.92255 0.946434 9.36043 0.624862 11.3428 0.462891C13.3287 0.30063 15.8349 0.299805 19.2002 0.299805Z" stroke="url(#paint3_linear_13152_45622)" stroke-width="0.6"/>
<path fill-rule="evenodd" clip-rule="evenodd" d="M12.972 23.1448C13.7301 23.2088 14.4882 22.7611 14.962 22.1936C15.4279 21.6101 15.7359 20.8267 15.6569 20.0273C14.9857 20.0593 14.1565 20.475 13.6827 21.0585C13.2484 21.5621 12.8773 22.3775 12.972 23.1448ZM21.9902 33.4426V20.9805H26.6099C28.9947 20.9805 30.6609 22.6431 30.6609 25.0732C30.6609 27.5033 28.9631 29.1819 26.5467 29.1819H23.9013V33.4426H21.9902ZM15.647 23.2971C14.9792 23.2582 14.3698 23.5004 13.8776 23.6961C13.5608 23.822 13.2926 23.9286 13.0885 23.9286C12.8595 23.9286 12.5802 23.8163 12.2666 23.6902C11.8556 23.5249 11.3858 23.336 10.8932 23.3451C9.76392 23.3611 8.71365 24.0086 8.13718 25.0397C6.95266 27.1021 7.82921 30.1557 8.97424 31.8343C9.53492 32.6657 10.2061 33.577 11.0906 33.545C11.4797 33.5301 11.7596 33.4099 12.0493 33.2855C12.3827 33.1422 12.7292 32.9934 13.2701 32.9934C13.7923 32.9934 14.1236 33.1383 14.4416 33.2775C14.744 33.4097 15.0343 33.5368 15.4654 33.529C16.3815 33.513 16.9579 32.6976 17.5186 31.8663C18.1237 30.9741 18.3895 30.1033 18.4299 29.9711L18.4346 29.9558C18.4337 29.9549 18.4262 29.9514 18.413 29.9453C18.2107 29.8515 16.6648 29.1351 16.6499 27.214C16.6351 25.6015 17.8762 24.7845 18.0715 24.6559L18.0715 24.6559L18.0716 24.6559C18.0835 24.6481 18.0914 24.6428 18.0951 24.6401C17.3054 23.457 16.0735 23.3291 15.647 23.2971ZM34.1494 33.5379C35.3497 33.5379 36.4632 32.9224 36.9686 31.9472H37.008V33.442H38.7769V27.2389C38.7769 25.4403 37.3555 24.2812 35.1681 24.2812C33.1386 24.2812 31.6382 25.4563 31.5829 27.071H33.3044C33.4466 26.3036 34.1494 25.8 35.1128 25.8C36.2815 25.8 36.937 26.3516 36.937 27.3668V28.0542L34.5521 28.1981C32.3331 28.334 31.1328 29.2533 31.1328 30.852C31.1328 32.4667 32.3726 33.5379 34.1494 33.5379ZM34.6623 32.0573C33.6436 32.0573 32.9961 31.5617 32.9961 30.8023C32.9961 30.0189 33.6199 29.5633 34.8124 29.4914L36.9366 29.3555V30.0589C36.9366 31.226 35.9574 32.0573 34.6623 32.0573ZM44.6436 33.9269C43.8776 36.1091 43.001 36.8286 41.1374 36.8286C40.9953 36.8286 40.5215 36.8126 40.4109 36.7806V35.2858C40.5293 35.3018 40.8215 35.3178 40.9716 35.3178C41.8165 35.3178 42.2903 34.958 42.5825 34.0228L42.7562 33.4712L39.5186 24.3984H41.5164L43.767 31.7606H43.8065L46.0571 24.3984H47.9997L44.6436 33.9269ZM23.9004 22.6094H26.1036C27.7619 22.6094 28.7095 23.5047 28.7095 25.0794C28.7095 26.6542 27.7619 27.5574 26.0957 27.5574H23.9004V22.6094Z" fill="white"/>
</g>
<defs>
<filter id="filter0_ii_13152_45622" x="0" y="0" width="56" height="56" filterUnits="userSpaceOnUse" color-interpolation-filters="sRGB">
<feFlood flood-opacity="0" result="BackgroundImageFix"/>
<feBlend mode="normal" in="SourceGraphic" in2="BackgroundImageFix" result="shape"/>
<feColorMatrix in="SourceAlpha" type="matrix" values="0 0 0 0 0 0 0 0 0 0 0 0 0 0 0 0 0 0 127 0" result="hardAlpha"/>
<feOffset dy="1"/>
<feComposite in2="hardAlpha" operator="arithmetic" k2="-1" k3="1"/>
<feColorMatrix type="matrix" values="0 0 0 0 0.858824 0 0 0 0 0.858824 0 0 0 0 0.92549 0 0 0 0.12 0"/>
<feBlend mode="normal" in2="shape" result="effect1_innerShadow_13152_45622"/>
<feColorMatrix in="SourceAlpha" type="matrix" values="0 0 0 0 0 0 0 0 0 0 0 0 0 0 0 0 0 0 127 0" result="hardAlpha"/>
<feOffset dy="-2"/>
<feComposite in2="hardAlpha" operator="arithmetic" k2="-1" k3="1"/>
<feColorMatrix type="matrix" values="0 0 0 0 0 0 0 0 0 0 0 0 0 0 0 0 0 0 0.25 0"/>
<feBlend mode="normal" in2="effect1_innerShadow_13152_45622" result="effect2_innerShadow_13152_45622"/>
</filter>
<linearGradient id="paint0_linear_13152_45622" x1="0" y1="0" x2="61.2925" y2="3.82896" gradientUnits="userSpaceOnUse">
<stop stop-color="#DBDBEC" stop-opacity="0.04"/>
<stop offset="1" stop-color="#DBDBEC" stop-opacity="0.12"/>
</linearGradient>
<radialGradient id="paint1_radial_13152_45622" cx="0" cy="0" r="1" gradientUnits="userSpaceOnUse" gradientTransform="translate(28 56) rotate(-90) scale(35.1373)">
<stop stop-color="#DBDBEC"/>
<stop offset="1" stop-color="#DBDBEC" stop-opacity="0"/>
</radialGradient>
<linearGradient id="paint2_linear_13152_45622" x1="3.53634" y1="3.70239" x2="49.5864" y2="7.56565" gradientUnits="userSpaceOnUse">
<stop stop-color="#DBDBEC" stop-opacity="0.04"/>
<stop offset="0.346152" stop-color="#DBDBEC" stop-opacity="0.16"/>
<stop offset="0.557693" stop-color="#DBDBEC" stop-opacity="0.12"/>
<stop offset="1" stop-color="#DBDBEC" stop-opacity="0.08"/>
</linearGradient>
<linearGradient id="paint3_linear_13152_45622" x1="19.0603" y1="-1.83719e-06" x2="47.6439" y2="15.3565" gradientUnits="userSpaceOnUse">
<stop stop-color="#DBDBEC" stop-opacity="0"/>
<stop offset="0.475961" stop-color="#DBDBEC" stop-opacity="0.32"/>
<stop offset="1" stop-color="#DBDBEC" stop-opacity="0"/>
</linearGradient>
</defs>
</svg>