<?xml version="1.0" encoding="utf-8"?>
<svg xmlns="http://www.w3.org/2000/svg" width="56" height="56" viewBox="0 0 56 56" fill="none">
<g filter="url(#filter0_ii_13152_45605)">
<path d="M0 19.2C0 12.4794 0 9.11905 1.30792 6.55211C2.4584 4.29417 4.29417 2.4584 6.55211 1.30792C9.11905 0 12.4794 0 19.2 0H36.8C43.5206 0 46.8809 0 49.4479 1.30792C51.7058 2.4584 53.5416 4.29417 54.6921 6.55211C56 9.11905 56 12.4794 56 19.2V36.8C56 43.5206 56 46.8809 54.6921 49.4479C53.5416 51.7058 51.7058 53.5416 49.4479 54.6921C46.8809 56 43.5206 56 36.8 56H19.2C12.4794 56 9.11905 56 6.55211 54.6921C4.29417 53.5416 2.4584 51.7058 1.30792 49.4479C0 46.8809 0 43.5206 0 36.8V19.2Z" fill="url(#paint0_linear_13152_45605)" fill-opacity="0.5"/>
<path d="M0 19.2C0 12.4794 0 9.11905 1.30792 6.55211C2.4584 4.29417 4.29417 2.4584 6.55211 1.30792C9.11905 0 12.4794 0 19.2 0H36.8C43.5206 0 46.8809 0 49.4479 1.30792C51.7058 2.4584 53.5416 4.29417 54.6921 6.55211C56 9.11905 56 12.4794 56 19.2V36.8C56 43.5206 56 46.8809 54.6921 49.4479C53.5416 51.7058 51.7058 53.5416 49.4479 54.6921C46.8809 56 43.5206 56 36.8 56H19.2C12.4794 56 9.11905 56 6.55211 54.6921C4.29417 53.5416 2.4584 51.7058 1.30792 49.4479C0 46.8809 0 43.5206 0 36.8V19.2Z" fill="url(#paint1_radial_13152_45605)" fill-opacity="0.12"/>
<path d="M19.2002 0.299805H36.7998C40.1651 0.299805 42.6713 0.30063 44.6572 0.462891C46.6396 0.624862 48.0774 0.946435 49.3115 1.5752C51.513 2.69691 53.3031 4.48698 54.4248 6.68848C55.0536 7.92255 55.3751 9.36043 55.5371 11.3428C55.6994 13.3287 55.7002 15.8349 55.7002 19.2002V36.7998C55.7002 40.1651 55.6994 42.6713 55.5371 44.6572C55.3751 46.6396 55.0536 48.0774 54.4248 49.3115C53.3031 51.513 51.513 53.3031 49.3115 54.4248C48.0774 55.0536 46.6396 55.3751 44.6572 55.5371C42.6713 55.6994 40.1651 55.7002 36.7998 55.7002H19.2002C15.8349 55.7002 13.3287 55.6994 11.3428 55.5371C9.36043 55.3751 7.92255 55.0536 6.68848 54.4248C4.48698 53.3031 2.69691 51.513 1.5752 49.3115C0.946435 48.0774 0.624862 46.6396 0.462891 44.6572C0.30063 42.6713 0.299805 40.1651 0.299805 36.7998V19.2002C0.299805 15.8349 0.30063 13.3287 0.462891 11.3428C0.624862 9.36043 0.946434 7.92255 1.5752 6.68848C2.69691 4.48698 4.48698 2.69691 6.68848 1.5752C7.92255 0.946434 9.36043 0.624862 11.3428 0.462891C13.3287 0.30063 15.8349 0.299805 19.2002 0.299805Z" stroke="url(#paint2_linear_13152_45605)" stroke-width="0.6"/>
<path d="M19.2002 0.299805H36.7998C40.1651 0.299805 42.6713 0.30063 44.6572 0.462891C46.6396 0.624862 48.0774 0.946435 49.3115 1.5752C51.513 2.69691 53.3031 4.48698 54.4248 6.68848C55.0536 7.92255 55.3751 9.36043 55.5371 11.3428C55.6994 13.3287 55.7002 15.8349 55.7002 19.2002V36.7998C55.7002 40.1651 55.6994 42.6713 55.5371 44.6572C55.3751 46.6396 55.0536 48.0774 54.4248 49.3115C53.3031 51.513 51.513 53.3031 49.3115 54.4248C48.0774 55.0536 46.6396 55.3751 44.6572 55.5371C42.6713 55.6994 40.1651 55.7002 36.7998 55.7002H19.2002C15.8349 55.7002 13.3287 55.6994 11.3428 55.5371C9.36043 55.3751 7.92255 55.0536 6.68848 54.4248C4.48698 53.3031 2.69691 51.513 1.5752 49.3115C0.946435 48.0774 0.624862 46.6396 0.462891 44.6572C0.30063 42.6713 0.299805 40.1651 0.299805 36.7998V19.2002C0.299805 15.8349 0.30063 13.3287 0.462891 11.3428C0.624862 9.36043 0.946434 7.92255 1.5752 6.68848C2.69691 4.48698 4.48698 2.69691 6.68848 1.5752C7.92255 0.946434 9.36043 0.624862 11.3428 0.462891C13.3287 0.30063 15.8349 0.299805 19.2002 0.299805Z" stroke="url(#paint3_linear_13152_45605)" stroke-width="0.6"/>
<path d="M44.0312 30.7559H44.0586L46.374 24.9463H48.001L42.999 36.5947H41.4561L43.3154 32.5195L40.0332 24.9463H41.6602L44.0312 30.7559ZM36.2031 24.6807C37.3095 24.6807 38.1837 24.982 38.8252 25.5762C39.4667 26.1704 39.7822 27.0009 39.7822 28.0479V33.0371H38.3506V31.915H38.2861C37.6633 32.8393 36.8444 33.3008 35.8125 33.3008C34.9388 33.3007 34.195 33.0369 33.6094 32.5088C33.0331 32.0184 32.708 31.2922 32.7266 30.5283C32.7266 29.6889 33.0422 29.0282 33.665 28.5283C34.2879 28.0285 35.1248 27.7832 36.166 27.7832C37.0585 27.7832 37.784 27.9528 38.3604 28.2734V27.9248C38.3603 27.4062 38.1374 26.9157 37.7471 26.5762C37.3473 26.2178 36.8356 26.0195 36.3057 26.0195C35.4689 26.0195 34.8086 26.3779 34.3252 27.0947L33.0049 26.2549C33.7114 25.2081 34.7809 24.6807 36.2031 24.6807ZM29.1113 21.21C30.0689 21.1911 30.9991 21.5592 31.6777 22.2383C33.0349 23.521 33.1183 25.6809 31.8447 27.0674L31.6777 27.2373C30.9805 27.907 30.1247 28.2461 29.1113 28.2461H26.6387V33.0381H25.1416V21.21H29.1113ZM36.3975 29.0088C35.7933 29.0088 35.2821 29.1599 34.873 29.4521C34.4732 29.7445 34.2686 30.1124 34.2686 30.5557C34.2686 30.9516 34.4541 31.3195 34.7607 31.5459C35.0955 31.81 35.5054 31.9518 35.9238 31.9424C36.556 31.9423 37.1602 31.687 37.6064 31.2344C38.0991 30.7628 38.3506 30.2067 38.3506 29.5654C37.8857 29.1881 37.2343 28.9994 36.3975 29.0088ZM26.6377 26.7939H29.1484C29.7063 26.8128 30.2457 26.5862 30.627 26.1807C31.408 25.3601 31.389 24.0393 30.5801 23.2471C30.1989 22.87 29.6876 22.6621 29.1484 22.6621H26.6377V26.7939Z" fill="white"/>
<path d="M21.4681 27.2072C21.4681 26.745 21.4309 26.2828 21.3566 25.8301H15.0439V28.4428H18.6604C18.5117 29.2822 18.0283 30.0368 17.3217 30.5084V32.2061H19.4786C20.743 31.0271 21.4681 29.2822 21.4681 27.2072Z" fill="#4285F4"/>
<path d="M15.0443 33.8449C16.8479 33.8449 18.3726 33.2413 19.479 32.2037L17.3221 30.506C16.7178 30.921 15.9461 31.1568 15.0443 31.1568C13.2965 31.1568 11.8183 29.9589 11.2884 28.3555H9.06641V30.1098C10.2006 32.4018 12.5156 33.8449 15.0443 33.8449Z" fill="#34A853"/>
<path d="M11.2883 28.3579C11.0093 27.5185 11.0093 26.6036 11.2883 25.7547V24.0098H9.06596C8.10822 25.9245 8.10822 28.1882 9.06596 30.1029L11.2883 28.3579Z" fill="#FBBC04"/>
<path d="M15.0443 22.9522C16.0019 22.9334 16.9223 23.3012 17.6103 23.9709L19.5254 22.0279C18.3075 20.8772 16.7085 20.2452 15.0443 20.2641C12.5156 20.2641 10.2006 21.7166 9.06641 24.0086L11.2884 25.763C11.8183 24.1501 13.2965 22.9522 15.0443 22.9522Z" fill="#EA4335"/>
</g>
<defs>
<filter id="filter0_ii_13152_45605" x="0" y="0" width="56" height="56" filterUnits="userSpaceOnUse" color-interpolation-filters="sRGB">
<feFlood flood-opacity="0" result="BackgroundImageFix"/>
<feBlend mode="normal" in="SourceGraphic" in2="BackgroundImageFix" result="shape"/>
<feColorMatrix in="SourceAlpha" type="matrix" values="0 0 0 0 0 0 0 0 0 0 0 0 0 0 0 0 0 0 127 0" result="hardAlpha"/>
<feOffset dy="1"/>
<feComposite in2="hardAlpha" operator="arithmetic" k2="-1" k3="1"/>
<feColorMatrix type="matrix" values="0 0 0 0 0.858824 0 0 0 0 0.858824 0 0 0 0 0.92549 0 0 0 0.12 0"/>
<feBlend mode="normal" in2="shape" result="effect1_innerShadow_13152_45605"/>
<feColorMatrix in="SourceAlpha" type="matrix" values="0 0 0 0 0 0 0 0 0 0 0 0 0 0 0 0 0 0 127 0" result="hardAlpha"/>
<feOffset dy="-2"/>
<feComposite in2="hardAlpha" operator="arithmetic" k2="-1" k3="1"/>
<feColorMatrix type="matrix" values="0 0 0 0 0 0 0 0 0 0 0 0 0 0 0 0 0 0 0.25 0"/>
<feBlend mode="normal" in2="effect1_innerShadow_13152_45605" result="effect2_innerShadow_13152_45605"/>
</filter>
<linearGradient id="paint0_linear_13152_45605" x1="0" y1="0" x2="61.2925" y2="3.82896" gradientUnits="userSpaceOnUse">
<stop stop-color="#DBDBEC" stop-opacity="0.04"/>
<stop offset="1" stop-color="#DBDBEC" stop-opacity="0.12"/>
</linearGradient>
<radialGradient id="paint1_radial_13152_45605" cx="0" cy="0" r="1" gradientUnits="userSpaceOnUse" gradientTransform="translate(28 56) rotate(-90) scale(35.1373)">
<stop stop-color="#DBDBEC"/>
<stop offset="1" stop-color="#DBDBEC" stop-opacity="0"/>
</radialGradient>
<linearGradient id="paint2_linear_13152_45605" x1="3.53634" y1="3.70239" x2="49.5864" y2="7.56565" gradientUnits="userSpaceOnUse">
<stop stop-color="#DBDBEC" stop-opacity="0.04"/>
<stop offset="0.346152" stop-color="#DBDBEC" stop-opacity="0.16"/>
<stop offset="0.557693" stop-color="#DBDBEC" stop-opacity="0.12"/>
<stop offset="1" stop-color="#DBDBEC" stop-opacity="0.08"/>
</linearGradient>
<linearGradient id="paint3_linear_13152_45605" x1="19.0603" y1="-1.83719e-06" x2="47.6439" y2="15.3565" gradientUnits="userSpaceOnUse">
<stop stop-color="#DBDBEC" stop-opacity="0"/>
<stop offset="0.475961" stop-color="#DBDBEC" stop-opacity="0.32"/>
<stop offset="1" stop-color="#DBDBEC" stop-opacity="0"/>
</linearGradient>
</defs>
</svg>