<?xml version="1.0" encoding="utf-8"?>
<svg xmlns="http://www.w3.org/2000/svg" width="72" height="72" viewBox="0 0 72 72" fill="none">
<g filter="url(#filter0_ii_1_8953)">
<path d="M0 24.6857C0 16.0449 0 11.7245 1.68161 8.42415C3.1608 5.52107 5.52107 3.1608 8.42415 1.68161C11.7245 0 16.0449 0 24.6857 0H47.3143C55.9551 0 60.2755 0 63.5759 1.68161C66.4789 3.1608 68.8392 5.52107 70.3184 8.42415C72 11.7245 72 16.0449 72 24.6857V47.3143C72 55.9551 72 60.2755 70.3184 63.5759C68.8392 66.4789 66.4789 68.8392 63.5759 70.3184C60.2755 72 55.9551 72 47.3143 72H24.6857C16.0449 72 11.7245 72 8.42415 70.3184C5.52107 68.8392 3.1608 66.4789 1.68161 63.5759C0 60.2755 0 55.9551 0 47.3143V24.6857Z" fill="url(#paint0_linear_1_8953)" fill-opacity="0.5"/>
<path d="M0 24.6857C0 16.0449 0 11.7245 1.68161 8.42415C3.1608 5.52107 5.52107 3.1608 8.42415 1.68161C11.7245 0 16.0449 0 24.6857 0H47.3143C55.9551 0 60.2755 0 63.5759 1.68161C66.4789 3.1608 68.8392 5.52107 70.3184 8.42415C72 11.7245 72 16.0449 72 24.6857V47.3143C72 55.9551 72 60.2755 70.3184 63.5759C68.8392 66.4789 66.4789 68.8392 63.5759 70.3184C60.2755 72 55.9551 72 47.3143 72H24.6857C16.0449 72 11.7245 72 8.42415 70.3184C5.52107 68.8392 3.1608 66.4789 1.68161 63.5759C0 60.2755 0 55.9551 0 47.3143V24.6857Z" fill="url(#paint1_radial_1_8953)" fill-opacity="0.12"/>
<path d="M24.6855 0.385742H47.3145C51.641 0.385742 54.8627 0.386134 57.416 0.594727C59.9648 0.802969 61.8137 1.21699 63.4004 2.02539C66.2309 3.4676 68.5324 5.76911 69.9746 8.59961C70.783 10.1863 71.197 12.0352 71.4053 14.584C71.6139 17.1373 71.6143 20.359 71.6143 24.6855V47.3145C71.6143 51.641 71.6139 54.8627 71.4053 57.416C71.197 59.9648 70.783 61.8137 69.9746 63.4004C68.5324 66.2309 66.2309 68.5324 63.4004 69.9746C61.8137 70.783 59.9648 71.197 57.416 71.4053C54.8627 71.6139 51.641 71.6143 47.3145 71.6143H24.6855C20.359 71.6143 17.1373 71.6139 14.584 71.4053C12.0352 71.197 10.1863 70.783 8.59961 69.9746C5.76911 68.5324 3.4676 66.2309 2.02539 63.4004C1.21699 61.8137 0.802969 59.9648 0.594727 57.416C0.386134 54.8627 0.385742 51.641 0.385742 47.3145V24.6855C0.385742 20.359 0.386134 17.1373 0.594727 14.584C0.802969 12.0352 1.21699 10.1863 2.02539 8.59961C3.4676 5.76911 5.76911 3.4676 8.59961 2.02539C10.1863 1.21699 12.0352 0.802969 14.584 0.594727C17.1373 0.386134 20.359 0.385742 24.6855 0.385742Z" stroke="url(#paint2_linear_1_8953)" stroke-width="0.771429"/>
<path d="M24.6855 0.385742H47.3145C51.641 0.385742 54.8627 0.386134 57.416 0.594727C59.9648 0.802969 61.8137 1.21699 63.4004 2.02539C66.2309 3.4676 68.5324 5.76911 69.9746 8.59961C70.783 10.1863 71.197 12.0352 71.4053 14.584C71.6139 17.1373 71.6143 20.359 71.6143 24.6855V47.3145C71.6143 51.641 71.6139 54.8627 71.4053 57.416C71.197 59.9648 70.783 61.8137 69.9746 63.4004C68.5324 66.2309 66.2309 68.5324 63.4004 69.9746C61.8137 70.783 59.9648 71.197 57.416 71.4053C54.8627 71.6139 51.641 71.6143 47.3145 71.6143H24.6855C20.359 71.6143 17.1373 71.6139 14.584 71.4053C12.0352 71.197 10.1863 70.783 8.59961 69.9746C5.76911 68.5324 3.4676 66.2309 2.02539 63.4004C1.21699 61.8137 0.802969 59.9648 0.594727 57.416C0.386134 54.8627 0.385742 51.641 0.385742 47.3145V24.6855C0.385742 20.359 0.386134 17.1373 0.594727 14.584C0.802969 12.0352 1.21699 10.1863 2.02539 8.59961C3.4676 5.76911 5.76911 3.4676 8.59961 2.02539C10.1863 1.21699 12.0352 0.802969 14.584 0.594727C17.1373 0.386134 20.359 0.385742 24.6855 0.385742Z" stroke="url(#paint3_linear_1_8953)" stroke-width="0.771429"/>
<path d="M30.4967 22.8971H41.5039C45.6972 22.8971 49.1042 26.3041 49.1042 30.4973V41.5045C49.1042 43.5202 48.3034 45.4534 46.8781 46.8787C45.4528 48.304 43.5196 49.1048 41.5039 49.1048H30.4967C26.3035 49.1048 22.8965 45.6978 22.8965 41.5045V30.4973C22.8965 28.4816 23.6972 26.5485 25.1225 25.1231C26.5479 23.6978 28.481 22.8971 30.4967 22.8971ZM30.2346 25.5179C28.9835 25.5179 27.7836 26.0149 26.8989 26.8996C26.0143 27.7842 25.5173 28.9841 25.5173 30.2352V41.7666C25.5173 44.3743 27.627 46.484 30.2346 46.484H41.766C43.0171 46.484 44.217 45.987 45.1017 45.1023C45.9864 44.2176 46.4834 43.0177 46.4834 41.7666V30.2352C46.4834 27.6276 44.3737 25.5179 41.766 25.5179H30.2346ZM42.8798 27.4834C43.3143 27.4834 43.7309 27.656 44.0381 27.9632C44.3452 28.2704 44.5178 28.687 44.5178 29.1214C44.5178 29.5558 44.3452 29.9725 44.0381 30.2796C43.7309 30.5868 43.3143 30.7594 42.8798 30.7594C42.4454 30.7594 42.0288 30.5868 41.7216 30.2796C41.4144 29.9725 41.2419 29.5558 41.2419 29.1214C41.2419 28.687 41.4144 28.2704 41.7216 27.9632C42.0288 27.656 42.4454 27.4834 42.8798 27.4834ZM36.0003 29.449C37.738 29.449 39.4045 30.1393 40.6332 31.368C41.8619 32.5967 42.5522 34.2633 42.5522 36.0009C42.5522 37.7386 41.8619 39.4051 40.6332 40.6338C39.4045 41.8626 37.738 42.5528 36.0003 42.5528C34.2626 42.5528 32.5961 41.8626 31.3674 40.6338C30.1387 39.4051 29.4484 37.7386 29.4484 36.0009C29.4484 34.2633 30.1387 32.5967 31.3674 31.368C32.5961 30.1393 34.2626 29.449 36.0003 29.449ZM36.0003 32.0698C34.9577 32.0698 33.9578 32.484 33.2206 33.2212C32.4833 33.9584 32.0692 34.9583 32.0692 36.0009C32.0692 37.0435 32.4833 38.0434 33.2206 38.7807C33.9578 39.5179 34.9577 39.9321 36.0003 39.9321C37.0429 39.9321 38.0428 39.5179 38.7801 38.7807C39.5173 38.0434 39.9315 37.0435 39.9315 36.0009C39.9315 34.9583 39.5173 33.9584 38.7801 33.2212C38.0428 32.484 37.0429 32.0698 36.0003 32.0698Z" fill="white"/>
</g>
<defs>
<filter id="filter0_ii_1_8953" x="0" y="0" width="72" height="72" filterUnits="userSpaceOnUse" color-interpolation-filters="sRGB">
<feFlood flood-opacity="0" result="BackgroundImageFix"/>
<feBlend mode="normal" in="SourceGraphic" in2="BackgroundImageFix" result="shape"/>
<feColorMatrix in="SourceAlpha" type="matrix" values="0 0 0 0 0 0 0 0 0 0 0 0 0 0 0 0 0 0 127 0" result="hardAlpha"/>
<feOffset dy="1.28571"/>
<feComposite in2="hardAlpha" operator="arithmetic" k2="-1" k3="1"/>
<feColorMatrix type="matrix" values="0 0 0 0 0.858824 0 0 0 0 0.858824 0 0 0 0 0.92549 0 0 0 0.12 0"/>
<feBlend mode="normal" in2="shape" result="effect1_innerShadow_1_8953"/>
<feColorMatrix in="SourceAlpha" type="matrix" values="0 0 0 0 0 0 0 0 0 0 0 0 0 0 0 0 0 0 127 0" result="hardAlpha"/>
<feOffset dy="-2.57143"/>
<feComposite in2="hardAlpha" operator="arithmetic" k2="-1" k3="1"/>
<feColorMatrix type="matrix" values="0 0 0 0 0 0 0 0 0 0 0 0 0 0 0 0 0 0 0.25 0"/>
<feBlend mode="normal" in2="effect1_innerShadow_1_8953" result="effect2_innerShadow_1_8953"/>
</filter>
<linearGradient id="paint0_linear_1_8953" x1="0" y1="0" x2="78.8046" y2="4.92295" gradientUnits="userSpaceOnUse">
<stop stop-color="#DBDBEC" stop-opacity="0.04"/>
<stop offset="1" stop-color="#DBDBEC" stop-opacity="0.12"/>
</linearGradient>
<radialGradient id="paint1_radial_1_8953" cx="0" cy="0" r="1" gradientUnits="userSpaceOnUse" gradientTransform="translate(36 72) rotate(-90) scale(45.1766)">
<stop stop-color="#DBDBEC"/>
<stop offset="1" stop-color="#DBDBEC" stop-opacity="0"/>
</radialGradient>
<linearGradient id="paint2_linear_1_8953" x1="4.54672" y1="4.76021" x2="63.754" y2="9.72727" gradientUnits="userSpaceOnUse">
<stop stop-color="#DBDBEC" stop-opacity="0.04"/>
<stop offset="0.346152" stop-color="#DBDBEC" stop-opacity="0.16"/>
<stop offset="0.557693" stop-color="#DBDBEC" stop-opacity="0.12"/>
<stop offset="1" stop-color="#DBDBEC" stop-opacity="0.08"/>
</linearGradient>
<linearGradient id="paint3_linear_1_8953" x1="24.5061" y1="-2.36211e-06" x2="61.2565" y2="19.744" gradientUnits="userSpaceOnUse">
<stop stop-color="#DBDBEC" stop-opacity="0"/>
<stop offset="0.475961" stop-color="#DBDBEC" stop-opacity="0.32"/>
<stop offset="1" stop-color="#DBDBEC" stop-opacity="0"/>
</linearGradient>
</defs>
</svg>