<?xml version="1.0" encoding="utf-8"?>
<svg xmlns="http://www.w3.org/2000/svg" width="106" height="34" viewBox="0 0 106 34" fill="none">
<path d="M47.9785 21.0742H58.7381V25.2223H37.169V24.466L48.4661 12.9502H37.8031V8.77759H59.2012V9.53391L47.9774 21.0742H47.9785Z" fill="white"/>
<path d="M60.0018 25.2218V8.77704H65.6381V25.2218H60.0018ZM75.1771 25.2218L66.0279 17.0721V16.9011L75.3237 8.77588H83.1557L73.2013 16.9744L83.0835 25.2218H75.1782H75.1771Z" fill="white"/>
<path d="M98.9219 20.7566H89.0641V25.2212H83.4277V8.77759H98.8963C102.751 8.77759 105.654 10.6812 105.654 14.6816C105.654 18.6819 102.75 20.7566 98.9207 20.7566H98.9219ZM97.3848 12.6569H89.0653V16.8784H97.5314C98.873 16.8784 99.8737 16.0487 99.8737 14.6827C99.8737 13.3167 98.823 12.6581 97.3848 12.6581V12.6569Z" fill="white"/>
<path d="M15.7745 0.730835C21.4144 0.730835 26.7086 2.2109 31.2908 4.80334C31.442 4.88944 31.5374 5.04769 31.5421 5.22222C31.5491 5.48635 31.5526 5.75165 31.5526 6.01694C31.5526 6.58593 31.5374 7.15142 31.5072 7.71343C31.4316 9.14579 30.9778 10.5397 30.14 11.7033C26.2641 17.0907 19.9401 20.5977 12.7981 20.5977C9.34115 20.5977 6.07733 19.7762 3.18819 18.3171C6.85809 20.7187 11.2459 22.115 15.9595 22.115C20.2659 22.115 24.3 20.9491 27.764 18.9163C28.1957 18.6626 28.7228 19.1036 28.5075 19.5563C25.7975 25.2531 21.4295 30.0086 16.0282 33.2003C15.8734 33.2922 15.6803 33.2922 15.5244 33.2003C10.1219 30.0075 5.7527 25.2508 3.04274 19.5516C2.47143 18.3508 2.52728 16.9406 3.23706 15.8177C7.01983 9.83578 13.6929 5.86335 21.2945 5.86335C24.7515 5.86335 28.0165 6.68483 30.9045 8.14395C27.2346 5.74234 22.8467 4.34605 18.1331 4.34605C11.5228 4.34605 5.55373 7.09208 1.30436 11.5055C1.0158 11.8057 0.5015 11.6638 0.432849 11.253C0.147774 9.54954 0 7.79953 0 6.01461C0 5.74932 0.00349073 5.48403 0.0104722 5.21989C0.0151264 5.04652 0.110539 4.88711 0.261804 4.80101C4.84046 2.2109 10.1347 0.730835 15.7745 0.730835Z" fill="url(#paint0_linear_1_538)"/>
<defs>
<linearGradient id="paint0_linear_1_538" x1="3.63012" y1="0.730835" x2="26.5563" y2="33.2692" gradientUnits="userSpaceOnUse">
<stop stop-color="#00FFD5"/>
<stop offset="1" stop-color="#00FF80"/>
</linearGradient>
</defs>
</svg>