<?xml version="1.0" encoding="utf-8"?>
<svg xmlns="http://www.w3.org/2000/svg" width="24" height="24" viewBox="0 0 24 24" fill="none">
<path d="M12 0C17.6569 0 20.4848 0.000453593 22.2422 1.75781C23.9995 3.51517 24 6.34315 24 12C24 17.6569 23.9995 20.4848 22.2422 22.2422C20.4848 23.9995 17.6569 24 12 24C6.34315 24 3.51517 23.9995 1.75781 22.2422C0.000453593 20.4848 0 17.6569 0 12C0 6.34315 0.000453166 3.51517 1.75781 1.75781C3.51517 0.000453166 6.34315 0 12 0ZM10.7344 2.7002C9.09327 2.70017 7.76985 2.69997 6.72949 2.83984C5.64954 2.98509 4.73979 3.29537 4.01758 4.01758C3.68408 4.35108 3.43906 4.72505 3.25684 5.13672C3.17559 5.11262 3.08906 5.09961 3 5.09961C2.50294 5.09961 2.09961 5.50294 2.09961 6V9.59961C2.09961 9.99148 2.35063 10.3257 2.7002 10.4492V13.5508C2.35063 13.6743 2.09961 14.0085 2.09961 14.4004V18C2.09961 18.4971 2.50294 18.9004 3 18.9004C3.08906 18.9004 3.17559 18.8874 3.25684 18.8633C3.43906 19.275 3.68408 19.6489 4.01758 19.9824C4.73979 20.7046 5.64954 21.0149 6.72949 21.1602C7.76985 21.3 9.09326 21.2998 10.7344 21.2998H13.2656C14.9067 21.2998 16.2301 21.3 17.2705 21.1602C18.3505 21.0149 19.2602 20.7046 19.9824 19.9824C20.7046 19.2602 21.0149 18.3505 21.1602 17.2705C21.3 16.2301 21.2998 14.9067 21.2998 13.2656V10.7344C21.2998 9.09326 21.3 7.76985 21.1602 6.72949C21.0149 5.64954 20.7046 4.73979 19.9824 4.01758C19.2602 3.29537 18.3505 2.98509 17.2705 2.83984C16.2301 2.69997 14.9067 2.70017 13.2656 2.7002H10.7344ZM13.2002 4.5C14.9226 4.5 16.1239 4.50216 17.0303 4.62402C17.9108 4.74241 18.3769 4.95891 18.709 5.29102C19.0411 5.62312 19.2576 6.08923 19.376 6.96973C19.4978 7.87611 19.5 9.07741 19.5 10.7998V13.2002C19.5 14.9226 19.4978 16.1239 19.376 17.0303C19.2576 17.9108 19.0411 18.3769 18.709 18.709C18.3769 19.0411 17.9108 19.2576 17.0303 19.376C16.1239 19.4978 14.9226 19.5 13.2002 19.5H10.7998C9.07741 19.5 7.87611 19.4978 6.96973 19.376C6.08923 19.2576 5.62312 19.0411 5.29102 18.709C4.95891 18.3769 4.74241 17.9108 4.62402 17.0303C4.50216 16.1239 4.5 14.9226 4.5 13.2002V10.7998C4.5 9.07741 4.50216 7.87611 4.62402 6.96973C4.74241 6.08923 4.95891 5.62312 5.29102 5.29102C5.62312 4.95891 6.08923 4.74241 6.96973 4.62402C7.87611 4.50216 9.07741 4.5 10.7998 4.5H13.2002ZM12.2676 7.51758C10.579 7.5176 8.99393 7.96093 7.62305 8.73633C7.57775 8.76211 7.54925 8.81039 7.54785 8.8623C7.54577 8.94118 7.54395 9.02039 7.54395 9.09961C7.54395 9.63408 7.58847 10.1589 7.67383 10.6689C7.69462 10.7916 7.84823 10.8338 7.93457 10.7441C9.20692 9.42267 10.9944 8.60067 12.9736 8.60059C14.3849 8.60059 15.699 9.01831 16.7979 9.7373C15.9333 9.30055 14.9558 9.05474 13.9209 9.05469C11.6448 9.05469 9.64639 10.2441 8.51367 12.0352C8.30118 12.3713 8.28412 12.7938 8.45508 13.1533C9.26648 14.8597 10.5749 16.2842 12.1924 17.2402C12.2391 17.2678 12.2974 17.2678 12.3438 17.2402C13.9609 16.2846 15.2686 14.8609 16.0801 13.1553C16.1445 13.0197 15.9867 12.8869 15.8574 12.9629C14.8203 13.5715 13.6126 13.9209 12.3232 13.9209C10.9119 13.9209 9.59787 13.5032 8.49902 12.7842C9.36394 13.2209 10.3411 13.4667 11.376 13.4668C13.5145 13.4668 15.4088 12.4168 16.5693 10.8037C16.8202 10.4553 16.9559 10.0373 16.9785 9.6084C16.9876 9.44021 16.9922 9.27086 16.9922 9.10059C16.9922 9.02119 16.9913 8.94136 16.9893 8.8623C16.9877 8.81029 16.9591 8.76304 16.9141 8.7373C15.542 7.96104 13.9563 7.51758 12.2676 7.51758Z" fill="white"/>
</svg>