<?xml version="1.0" encoding="utf-8"?>
<svg xmlns="http://www.w3.org/2000/svg" width="60" height="60" viewBox="0 0 60 60" fill="none">
<g clip-path="url(#clip0_1_49082)">
<path d="M0 19.2C0 12.4794 0 9.11905 1.30792 6.55211C2.4584 4.29417 4.29417 2.4584 6.55211 1.30792C9.11905 0 12.4794 0 19.2 0H40.8C47.5206 0 50.8809 0 53.4479 1.30792C55.7058 2.4584 57.5416 4.29417 58.6921 6.55211C60 9.11905 60 12.4794 60 19.2V40.8C60 47.5206 60 50.8809 58.6921 53.4479C57.5416 55.7058 55.7058 57.5416 53.4479 58.6921C50.8809 60 47.5206 60 40.8 60H19.2C12.4794 60 9.11905 60 6.55211 58.6921C4.29417 57.5416 2.4584 55.7058 1.30792 53.4479C0 50.8809 0 47.5206 0 40.8V19.2Z" fill="#00FF80" fill-opacity="0.05"/>
<path d="M30 12C20.1134 12 12 20.1134 12 30C12 39.8866 20.1134 48 30 48C33.1498 48 36.2509 47.1678 38.9668 45.5929L37.908 43.7678C35.5135 45.1562 32.7787 45.8906 30 45.8906C21.2763 45.8906 14.1094 38.7237 14.1094 30C14.1094 21.2763 21.2763 14.1094 30 14.1094C38.7237 14.1094 45.8906 21.2763 45.8906 30C45.8906 32.8056 45.1565 35.5453 43.7812 37.9255V35.3438H41.6719V41.6719H48V39.5625H45.2562C47.0277 36.7269 48 33.3593 48 30C48 20.1134 39.8866 12 30 12Z" fill="white"/>
<path d="M30 18.3281C23.6029 18.3281 18.3281 23.6029 18.3281 30C18.3281 36.3971 23.6029 41.6719 30 41.6719C36.3971 41.6719 41.6719 36.3971 41.6719 30C41.6719 23.6029 36.3971 18.3281 30 18.3281ZM37.3828 31.0547H28.9453V22.5469H31.0547V28.9453H37.3828V31.0547Z" fill="white"/>
<g opacity="0.4" filter="url(#filter0_f_1_49082)">
<circle cx="30.332" cy="67.0078" r="16" fill="#00FF80"/>
</g>
</g>
<defs>
<filter id="filter0_f_1_49082" x="-19.4731" y="17.2026" width="99.6103" height="99.6103" filterUnits="userSpaceOnUse" color-interpolation-filters="sRGB">
<feFlood flood-opacity="0" result="BackgroundImageFix"/>
<feBlend mode="normal" in="SourceGraphic" in2="BackgroundImageFix" result="shape"/>
<feGaussianBlur stdDeviation="16.9026" result="effect1_foregroundBlur_1_49082"/>
</filter>
<clipPath id="clip0_1_49082">
<path d="M0 19.2C0 12.4794 0 9.11905 1.30792 6.55211C2.4584 4.29417 4.29417 2.4584 6.55211 1.30792C9.11905 0 12.4794 0 19.2 0H40.8C47.5206 0 50.8809 0 53.4479 1.30792C55.7058 2.4584 57.5416 4.29417 58.6921 6.55211C60 9.11905 60 12.4794 60 19.2V40.8C60 47.5206 60 50.8809 58.6921 53.4479C57.5416 55.7058 55.7058 57.5416 53.4479 58.6921C50.8809 60 47.5206 60 40.8 60H19.2C12.4794 60 9.11905 60 6.55211 58.6921C4.29417 57.5416 2.4584 55.7058 1.30792 53.4479C0 50.8809 0 47.5206 0 40.8V19.2Z" fill="white"/>
</clipPath>
</defs>
</svg>