<?xml version="1.0" encoding="utf-8"?>
<svg xmlns="http://www.w3.org/2000/svg" width="61" height="60" viewBox="0 0 61 60" fill="none">
<g clip-path="url(#clip0_1_49070)">
<path d="M0 19.2C0 12.4794 0 9.11905 1.30792 6.55211C2.4584 4.29417 4.29417 2.4584 6.55211 1.30792C9.11905 0 12.4794 0 19.2 0H41.0236C47.7442 0 51.1045 0 53.6715 1.30792C55.9294 2.4584 57.7652 4.29417 58.9157 6.55211C60.2236 9.11905 60.2236 12.4794 60.2236 19.2V40.8C60.2236 47.5206 60.2236 50.8809 58.9157 53.4479C57.7652 55.7058 55.9294 57.5416 53.6715 58.6921C51.1045 60 47.7442 60 41.0236 60H19.2C12.4794 60 9.11905 60 6.55211 58.6921C4.29417 57.5416 2.4584 55.7058 1.30792 53.4479C0 50.8809 0 47.5206 0 40.8V19.2Z" fill="#00FF80" fill-opacity="0.05"/>
<path d="M21.0559 36C21.0559 39.3137 23.7589 42 27.0932 42H33.1304C36.4647 42 39.1677 39.3137 39.1677 36C39.1677 32.6863 36.4647 30 33.1304 30H27.0932C23.7589 30 21.0559 27.3137 21.0559 24C21.0559 20.6863 23.7589 18 27.0932 18H33.1304C36.4647 18 39.1677 20.6863 39.1677 24M30.1118 15V45" stroke="white" stroke-width="3" stroke-linecap="round" stroke-linejoin="round"/>
<g opacity="0.4" filter="url(#filter0_f_1_49070)">
<circle cx="30.332" cy="67.0078" r="16" fill="#00FF80"/>
</g>
</g>
<defs>
<filter id="filter0_f_1_49070" x="-19.4731" y="17.2026" width="99.6103" height="99.6103" filterUnits="userSpaceOnUse" color-interpolation-filters="sRGB">
<feFlood flood-opacity="0" result="BackgroundImageFix"/>
<feBlend mode="normal" in="SourceGraphic" in2="BackgroundImageFix" result="shape"/>
<feGaussianBlur stdDeviation="16.9026" result="effect1_foregroundBlur_1_49070"/>
</filter>
<clipPath id="clip0_1_49070">
<path d="M0 19.2C0 12.4794 0 9.11905 1.30792 6.55211C2.4584 4.29417 4.29417 2.4584 6.55211 1.30792C9.11905 0 12.4794 0 19.2 0H41.0236C47.7442 0 51.1045 0 53.6715 1.30792C55.9294 2.4584 57.7652 4.29417 58.9157 6.55211C60.2236 9.11905 60.2236 12.4794 60.2236 19.2V40.8C60.2236 47.5206 60.2236 50.8809 58.9157 53.4479C57.7652 55.7058 55.9294 57.5416 53.6715 58.6921C51.1045 60 47.7442 60 41.0236 60H19.2C12.4794 60 9.11905 60 6.55211 58.6921C4.29417 57.5416 2.4584 55.7058 1.30792 53.4479C0 50.8809 0 47.5206 0 40.8V19.2Z" fill="white"/>
</clipPath>
</defs>
</svg>