<?xml version="1.0" encoding="utf-8"?>
<svg xmlns="http://www.w3.org/2000/svg" width="21" height="17" viewBox="0 0 21 17" fill="none">
<path d="M1.87942 7.66812L13.7449 2.77936C14.9161 2.27011 18.8882 0.640525 18.8882 0.640525C18.8882 0.640525 20.7215 -0.0724192 20.5687 1.65902C20.5178 2.37196 20.1104 4.86727 19.703 7.56627L18.4299 15.5614C18.4299 15.5614 18.3281 16.7327 17.4623 16.9364C16.5966 17.1401 15.1707 16.2235 14.9161 16.0198C14.7124 15.867 11.0968 13.5754 9.77273 12.455C9.41626 12.1495 9.00887 11.5384 9.82366 10.8254C11.6569 9.14493 13.8467 7.05702 15.1707 5.73299C15.7818 5.12189 16.3929 3.696 13.8467 5.42744L6.66633 10.2653C6.66633 10.2653 5.85154 10.7745 4.3238 10.3162C2.79607 9.85788 1.0137 9.24678 1.0137 9.24678C1.0137 9.24678 -0.208486 8.48291 1.87942 7.66812Z" fill="#080C16"/>
</svg>