<?xml version="1.0" encoding="utf-8"?>
<svg xmlns="http://www.w3.org/2000/svg" width="15" height="13" viewBox="0 0 15 13" fill="none">
<path d="M0.965236 5.76719L9.27104 2.34506C10.0909 1.98859 12.8714 0.847879 12.8714 0.847879C12.8714 0.847879 14.1547 0.348818 14.0478 1.56082C14.0121 2.05988 13.7269 3.8066 13.4418 5.6959L12.5506 11.2925C12.5506 11.2925 12.4793 12.1124 11.8733 12.255C11.2673 12.3976 10.2692 11.7559 10.0909 11.6133C9.94833 11.5064 7.41738 9.90227 6.49055 9.11803C6.24102 8.90415 5.95585 8.47638 6.5262 7.97732C7.8095 6.80096 9.34233 5.33943 10.2692 4.4126C10.6969 3.98483 11.1247 2.98671 9.34233 4.19872L4.31607 7.5852C4.31607 7.5852 3.74572 7.94168 2.6763 7.62085C1.60689 7.30003 0.359233 6.87226 0.359233 6.87226C0.359233 6.87226 -0.4963 6.33755 0.965236 5.76719Z" fill="white"/>
</svg>