<?xml version="1.0" encoding="utf-8"?>
<svg xmlns="http://www.w3.org/2000/svg" width="72" height="72" viewBox="0 0 72 72" fill="none">
<g filter="url(#filter0_ii_1_8959)">
<path d="M0 24.6857C0 16.0449 0 11.7245 1.68161 8.42415C3.1608 5.52107 5.52107 3.1608 8.42415 1.68161C11.7245 0 16.0449 0 24.6857 0H47.3143C55.9551 0 60.2755 0 63.5759 1.68161C66.4789 3.1608 68.8392 5.52107 70.3184 8.42415C72 11.7245 72 16.0449 72 24.6857V47.3143C72 55.9551 72 60.2755 70.3184 63.5759C68.8392 66.4789 66.4789 68.8392 63.5759 70.3184C60.2755 72 55.9551 72 47.3143 72H24.6857C16.0449 72 11.7245 72 8.42415 70.3184C5.52107 68.8392 3.1608 66.4789 1.68161 63.5759C0 60.2755 0 55.9551 0 47.3143V24.6857Z" fill="url(#paint0_linear_1_8959)" fill-opacity="0.5"/>
<path d="M0 24.6857C0 16.0449 0 11.7245 1.68161 8.42415C3.1608 5.52107 5.52107 3.1608 8.42415 1.68161C11.7245 0 16.0449 0 24.6857 0H47.3143C55.9551 0 60.2755 0 63.5759 1.68161C66.4789 3.1608 68.8392 5.52107 70.3184 8.42415C72 11.7245 72 16.0449 72 24.6857V47.3143C72 55.9551 72 60.2755 70.3184 63.5759C68.8392 66.4789 66.4789 68.8392 63.5759 70.3184C60.2755 72 55.9551 72 47.3143 72H24.6857C16.0449 72 11.7245 72 8.42415 70.3184C5.52107 68.8392 3.1608 66.4789 1.68161 63.5759C0 60.2755 0 55.9551 0 47.3143V24.6857Z" fill="url(#paint1_radial_1_8959)" fill-opacity="0.12"/>
<path d="M24.6855 0.385742H47.3145C51.641 0.385742 54.8627 0.386134 57.416 0.594727C59.9648 0.802969 61.8137 1.21699 63.4004 2.02539C66.2309 3.4676 68.5324 5.76911 69.9746 8.59961C70.783 10.1863 71.197 12.0352 71.4053 14.584C71.6139 17.1373 71.6143 20.359 71.6143 24.6855V47.3145C71.6143 51.641 71.6139 54.8627 71.4053 57.416C71.197 59.9648 70.783 61.8137 69.9746 63.4004C68.5324 66.2309 66.2309 68.5324 63.4004 69.9746C61.8137 70.783 59.9648 71.197 57.416 71.4053C54.8627 71.6139 51.641 71.6143 47.3145 71.6143H24.6855C20.359 71.6143 17.1373 71.6139 14.584 71.4053C12.0352 71.197 10.1863 70.783 8.59961 69.9746C5.76911 68.5324 3.4676 66.2309 2.02539 63.4004C1.21699 61.8137 0.802969 59.9648 0.594727 57.416C0.386134 54.8627 0.385742 51.641 0.385742 47.3145V24.6855C0.385742 20.359 0.386134 17.1373 0.594727 14.584C0.802969 12.0352 1.21699 10.1863 2.02539 8.59961C3.4676 5.76911 5.76911 3.4676 8.59961 2.02539C10.1863 1.21699 12.0352 0.802969 14.584 0.594727C17.1373 0.386134 20.359 0.385742 24.6855 0.385742Z" stroke="url(#paint2_linear_1_8959)" stroke-width="0.771429"/>
<path d="M24.6855 0.385742H47.3145C51.641 0.385742 54.8627 0.386134 57.416 0.594727C59.9648 0.802969 61.8137 1.21699 63.4004 2.02539C66.2309 3.4676 68.5324 5.76911 69.9746 8.59961C70.783 10.1863 71.197 12.0352 71.4053 14.584C71.6139 17.1373 71.6143 20.359 71.6143 24.6855V47.3145C71.6143 51.641 71.6139 54.8627 71.4053 57.416C71.197 59.9648 70.783 61.8137 69.9746 63.4004C68.5324 66.2309 66.2309 68.5324 63.4004 69.9746C61.8137 70.783 59.9648 71.197 57.416 71.4053C54.8627 71.6139 51.641 71.6143 47.3145 71.6143H24.6855C20.359 71.6143 17.1373 71.6139 14.584 71.4053C12.0352 71.197 10.1863 70.783 8.59961 69.9746C5.76911 68.5324 3.4676 66.2309 2.02539 63.4004C1.21699 61.8137 0.802969 59.9648 0.594727 57.416C0.386134 54.8627 0.385742 51.641 0.385742 47.3145V24.6855C0.385742 20.359 0.386134 17.1373 0.594727 14.584C0.802969 12.0352 1.21699 10.1863 2.02539 8.59961C3.4676 5.76911 5.76911 3.4676 8.59961 2.02539C10.1863 1.21699 12.0352 0.802969 14.584 0.594727C17.1373 0.386134 20.359 0.385742 24.6855 0.385742Z" stroke="url(#paint3_linear_1_8959)" stroke-width="0.771429"/>
<path d="M24.5335 34.6076L40.102 28.1931C41.6388 27.5249 46.8506 25.3867 46.8506 25.3867C46.8506 25.3867 49.2561 24.4513 49.0556 26.7231C48.9888 27.6585 48.4542 30.9326 47.9197 34.4739L46.2493 44.9643C46.2493 44.9643 46.1156 46.5011 44.9797 46.7684C43.8438 47.0357 41.9729 45.8329 41.6388 45.5657C41.3716 45.3652 36.6275 42.3584 34.8902 40.8884C34.4225 40.4875 33.888 39.6857 34.9571 38.7503C37.3625 36.5453 40.2357 33.8057 41.9729 32.0685C42.7747 31.2667 43.5766 29.3958 40.2357 31.6676L30.8144 38.0153C30.8144 38.0153 29.7453 38.6834 27.7408 38.0821C25.7362 37.4807 23.3976 36.6789 23.3976 36.6789C23.3976 36.6789 21.794 35.6766 24.5335 34.6076Z" fill="white"/>
</g>
<defs>
<filter id="filter0_ii_1_8959" x="0" y="0" width="72" height="72" filterUnits="userSpaceOnUse" color-interpolation-filters="sRGB">
<feFlood flood-opacity="0" result="BackgroundImageFix"/>
<feBlend mode="normal" in="SourceGraphic" in2="BackgroundImageFix" result="shape"/>
<feColorMatrix in="SourceAlpha" type="matrix" values="0 0 0 0 0 0 0 0 0 0 0 0 0 0 0 0 0 0 127 0" result="hardAlpha"/>
<feOffset dy="1.28571"/>
<feComposite in2="hardAlpha" operator="arithmetic" k2="-1" k3="1"/>
<feColorMatrix type="matrix" values="0 0 0 0 0.858824 0 0 0 0 0.858824 0 0 0 0 0.92549 0 0 0 0.12 0"/>
<feBlend mode="normal" in2="shape" result="effect1_innerShadow_1_8959"/>
<feColorMatrix in="SourceAlpha" type="matrix" values="0 0 0 0 0 0 0 0 0 0 0 0 0 0 0 0 0 0 127 0" result="hardAlpha"/>
<feOffset dy="-2.57143"/>
<feComposite in2="hardAlpha" operator="arithmetic" k2="-1" k3="1"/>
<feColorMatrix type="matrix" values="0 0 0 0 0 0 0 0 0 0 0 0 0 0 0 0 0 0 0.25 0"/>
<feBlend mode="normal" in2="effect1_innerShadow_1_8959" result="effect2_innerShadow_1_8959"/>
</filter>
<linearGradient id="paint0_linear_1_8959" x1="0" y1="0" x2="78.8046" y2="4.92295" gradientUnits="userSpaceOnUse">
<stop stop-color="#DBDBEC" stop-opacity="0.04"/>
<stop offset="1" stop-color="#DBDBEC" stop-opacity="0.12"/>
</linearGradient>
<radialGradient id="paint1_radial_1_8959" cx="0" cy="0" r="1" gradientUnits="userSpaceOnUse" gradientTransform="translate(36 72) rotate(-90) scale(45.1766)">
<stop stop-color="#DBDBEC"/>
<stop offset="1" stop-color="#DBDBEC" stop-opacity="0"/>
</radialGradient>
<linearGradient id="paint2_linear_1_8959" x1="4.54672" y1="4.76021" x2="63.754" y2="9.72727" gradientUnits="userSpaceOnUse">
<stop stop-color="#DBDBEC" stop-opacity="0.04"/>
<stop offset="0.346152" stop-color="#DBDBEC" stop-opacity="0.16"/>
<stop offset="0.557693" stop-color="#DBDBEC" stop-opacity="0.12"/>
<stop offset="1" stop-color="#DBDBEC" stop-opacity="0.08"/>
</linearGradient>
<linearGradient id="paint3_linear_1_8959" x1="24.5061" y1="-2.36211e-06" x2="61.2565" y2="19.744" gradientUnits="userSpaceOnUse">
<stop stop-color="#DBDBEC" stop-opacity="0"/>
<stop offset="0.475961" stop-color="#DBDBEC" stop-opacity="0.32"/>
<stop offset="1" stop-color="#DBDBEC" stop-opacity="0"/>
</linearGradient>
</defs>
</svg>